<?xml version="1.0" encoding="utf-8"?>
<!-- Generator: Adobe Illustrator 16.0.0, SVG Export Plug-In . SVG Version: 6.00 Build 0)  -->
<!DOCTYPE svg PUBLIC "-//W3C//DTD SVG 1.1//EN" "http://www.w3.org/Graphics/SVG/1.1/DTD/svg11.dtd">
<svg version="1.1" xmlns="http://www.w3.org/2000/svg" xmlns:xlink="http://www.w3.org/1999/xlink" x="0px" y="0px" width="64px"
	 height="64px" viewBox="0 0 64 64" enable-background="new 0 0 64 64" xml:space="preserve">
<g id="_x35_0_document_x2C__optimization_x2C__documentation_x2C__business_x2C__office_x2C__corporation_x2C__job">
	<g>
		<polygon fill="#D7E9FF" points="6,60 42.988,60 43,62.99 3,62.99 3,6.99 5.988,7 6,7 		"/>
	</g>
	<g>
		<polygon fill="#D7E9FF" points="8.988,57.01 45.988,57.01 46,60 42.988,60 6,60 6,7 6,4 8.988,4.01 		"/>
	</g>
	<g>
		<polygon fill="#D7E9FF" points="57.988,47.99 57.988,49.99 55.988,52.99 53.988,49.99 53.988,47.99 		"/>
	</g>
	<g>
		<rect x="53.988" y="25.99" fill="#94C1FF" width="4" height="22"/>
	</g>
	<g>
		<path fill="#94C1FF" d="M57.988,16.99v9h-4v-10c0-1.1,0.9-2,2-2c1.111,0,2,0.9,2,2V16.99z"/>
	</g>
	<g>
		<path fill="#FFFFFF" d="M48.988,6.99v50.02h-3h-37v-53v-3h34v5.859V6.99H48.988z"/>
	</g>
	<g>
		<polygon fill="#FFFFFF" points="48.988,6.99 42.988,6.99 42.988,6.869 42.988,1.01 		"/>
	</g>
	<g>
		<path fill="#94C1FF" d="M28.988,15.99c-3.309,0-6,2.689-6,6c0,3.32,2.691,6,6,6c3.32,0,6-2.68,6-6
			C34.988,18.68,32.309,15.99,28.988,15.99z M28.988,24.99c-1.648,0-3-1.34-3-3c0-1.65,1.352-3,3-3c1.66,0,3,1.35,3,3
			C31.988,23.65,30.648,24.99,28.988,24.99z"/>
	</g>
	<g>
		<path fill="#94C1FF" d="M41.988,18.99v6H40.09c-0.271,0.969-0.641,1.879-1.131,2.73l1.35,1.35l-4.25,4.24l-1.34-1.352
			c-0.85,0.49-1.76,0.871-2.73,1.131v1.9h-6v-1.9c-0.959-0.27-1.869-0.641-2.719-1.131l-1.35,1.352l-4.24-4.24l1.35-1.35
			c-0.49-0.852-0.871-1.762-1.131-2.73h-1.91v-6h1.91c0.26-0.961,0.641-1.871,1.131-2.721l-1.35-1.35l4.24-4.24l1.35,1.35
			c0.85-0.49,1.76-0.869,2.719-1.129V8.99h6v1.91c0.971,0.26,1.881,0.639,2.73,1.129l1.34-1.35l4.25,4.24l-1.35,1.35
			c0.49,0.85,0.859,1.76,1.131,2.721H41.988z M34.988,21.99c0-3.311-2.68-6-6-6c-3.309,0-6,2.689-6,6c0,3.32,2.691,6,6,6
			C32.309,27.99,34.988,25.311,34.988,21.99z"/>
	</g>
	<g>
		<g>
			<path fill="#116FFF" d="M49,58.006H9c-0.553,0-1-0.447-1-1v-56c0-0.553,0.447-1,1-1h34c0.265,0,0.519,0.105,0.706,0.292l6,5.988
				C49.895,6.474,50,6.729,50,6.994v50.012C50,57.559,49.553,58.006,49,58.006z M10,56.006h38V7.409l-5.414-5.403H10V56.006z"/>
		</g>
		<g>
			<path fill="#116FFF" d="M46.006,61c-0.552,0-0.999-0.446-1-0.998L45,57.008c-0.001-0.553,0.445-1.001,0.998-1.002
				c0.001,0,0.001,0,0.002,0c0.552,0,0.999,0.446,1,0.998l0.006,2.994c0.001,0.553-0.445,1.001-0.998,1.002
				C46.007,61,46.007,61,46.006,61z"/>
		</g>
		<g>
			<path fill="#116FFF" d="M46.006,61H6c-0.553,0-1-0.447-1-1s0.447-1,1-1h40.006c0.553,0,1,0.447,1,1S46.559,61,46.006,61z"/>
		</g>
		<g>
			<path fill="#116FFF" d="M9,5.006c-0.001,0-0.001,0-0.002,0L6.004,5C5.451,4.999,5.005,4.551,5.006,3.998
				C5.007,3.446,5.454,3,6.006,3c0.001,0,0.001,0,0.002,0l2.994,0.006C9.555,3.007,10.001,3.455,10,4.008
				C9.999,4.56,9.552,5.006,9,5.006z"/>
		</g>
		<g>
			<path fill="#116FFF" d="M6.006,61c-0.553,0-1-0.447-1-1V4c0-0.553,0.447-1,1-1s1,0.447,1,1v56C7.006,60.553,6.559,61,6.006,61z"
				/>
		</g>
		<g>
			<path fill="#116FFF" d="M43.006,63.994c-0.552,0-0.999-0.446-1-0.998L42,60.002c-0.001-0.553,0.445-1.001,0.998-1.002
				c0.001,0,0.001,0,0.002,0c0.552,0,0.999,0.446,1,0.998l0.006,2.994c0.001,0.553-0.445,1.001-0.998,1.002
				C43.007,63.994,43.007,63.994,43.006,63.994z"/>
		</g>
		<g>
			<path fill="#116FFF" d="M43.006,63.994H3c-0.553,0-1-0.447-1-1s0.447-1,1-1h40.006c0.553,0,1,0.447,1,1
				S43.559,63.994,43.006,63.994z"/>
		</g>
		<g>
			<path fill="#116FFF" d="M6,8C5.999,8,5.999,8,5.998,8L3.004,7.994C2.451,7.993,2.005,7.545,2.006,6.992
				c0.001-0.552,0.448-0.998,1-0.998c0.001,0,0.001,0,0.002,0L6.002,6C6.555,6.001,7.001,6.449,7,7.002C6.999,7.554,6.552,8,6,8z"/>
		</g>
		<g>
			<path fill="#116FFF" d="M3.006,63.994c-0.553,0-1-0.447-1-1v-56c0-0.553,0.447-1,1-1s1,0.447,1,1v56
				C4.006,63.547,3.559,63.994,3.006,63.994z"/>
		</g>
		<g>
			<path fill="#116FFF" d="M49,7.994h-6c-0.553,0-1-0.447-1-1s0.447-1,1-1h6c0.553,0,1,0.447,1,1S49.553,7.994,49,7.994z"/>
		</g>
		<g>
			<path fill="#116FFF" d="M43,7.87c-0.553,0-1-0.447-1-1V1.006c0-0.553,0.447-1,1-1s1,0.447,1,1V6.87C44,7.423,43.553,7.87,43,7.87
				z"/>
		</g>
		<g>
			<g>
				<path fill="#116FFF" d="M31.999,35.994h-6c-0.553,0-1-0.447-1-1v-1.168c-0.528-0.179-1.043-0.391-1.539-0.636l-0.824,0.824
					c-0.375,0.375-1.039,0.375-1.414,0l-4.243-4.243c-0.391-0.391-0.391-1.023,0-1.414l0.825-0.825
					c-0.245-0.495-0.457-1.01-0.636-1.538H16c-0.553,0-1-0.447-1-1v-6c0-0.553,0.447-1,1-1h1.168
					c0.179-0.528,0.391-1.043,0.636-1.538l-0.825-0.825c-0.391-0.391-0.391-1.023,0-1.414l4.242-4.242
					c0.375-0.375,1.039-0.375,1.414,0l0.824,0.824c0.497-0.246,1.012-0.458,1.54-0.637V8.994c0-0.553,0.447-1,1-1h6
					c0.553,0,1,0.447,1,1v1.168c0.529,0.178,1.043,0.39,1.54,0.635l0.824-0.824c0.391-0.391,1.023-0.391,1.414,0l4.243,4.243
					c0.188,0.188,0.293,0.441,0.293,0.707s-0.105,0.52-0.293,0.707l-0.824,0.824c0.245,0.496,0.457,1.011,0.636,1.54H42
					c0.553,0,1,0.447,1,1v6c0,0.553-0.447,1-1,1h-1.168c-0.179,0.529-0.391,1.044-0.637,1.541l0.824,0.824
					c0.188,0.188,0.293,0.441,0.293,0.707s-0.105,0.52-0.293,0.707l-4.242,4.242c-0.391,0.391-1.023,0.391-1.414,0l-0.824-0.824
					c-0.496,0.245-1.011,0.457-1.54,0.635v1.168C32.999,35.547,32.552,35.994,31.999,35.994z M26.999,33.994h4v-0.909
					c0-0.452,0.304-0.848,0.74-0.966c0.876-0.236,1.712-0.581,2.483-1.025c0.39-0.226,0.887-0.16,1.206,0.159l0.642,0.642
					l2.828-2.828l-0.641-0.641c-0.319-0.319-0.385-0.813-0.16-1.205c0.445-0.775,0.791-1.612,1.028-2.487
					c0.117-0.437,0.513-0.739,0.965-0.739H41v-4h-0.909c-0.452,0-0.848-0.303-0.965-0.739c-0.238-0.878-0.584-1.714-1.027-2.484
					c-0.226-0.392-0.161-0.887,0.159-1.206l0.642-0.642l-2.829-2.829l-0.642,0.642c-0.319,0.318-0.816,0.384-1.206,0.159
					c-0.771-0.444-1.607-0.789-2.483-1.025c-0.437-0.118-0.74-0.514-0.74-0.966V9.994h-4v0.909c0,0.452-0.303,0.848-0.739,0.965
					c-0.874,0.237-1.711,0.583-2.486,1.028c-0.391,0.223-0.886,0.159-1.205-0.16l-0.641-0.641L19.1,14.924l0.642,0.642
					c0.319,0.319,0.385,0.813,0.16,1.205c-0.444,0.772-0.789,1.608-1.027,2.485c-0.117,0.436-0.514,0.738-0.965,0.738H17v4h0.909
					c0.451,0,0.848,0.303,0.965,0.738c0.238,0.877,0.583,1.713,1.027,2.485c0.225,0.392,0.159,0.886-0.16,1.205L19.1,29.064
					l2.829,2.829l0.642-0.642c0.319-0.32,0.814-0.386,1.206-0.159c0.771,0.444,1.607,0.79,2.483,1.027
					c0.437,0.117,0.739,0.513,0.739,0.965V33.994z"/>
			</g>
			<g>
				<path fill="#116FFF" d="M29,28.994c-3.859,0-7-3.141-7-7s3.141-7,7-7s7,3.141,7,7S32.859,28.994,29,28.994z M29,16.994
					c-2.757,0-5,2.243-5,5s2.243,5,5,5s5-2.243,5-5S31.757,16.994,29,16.994z"/>
			</g>
			<g>
				<path fill="#116FFF" d="M29,25.994c-2.206,0-4-1.794-4-4s1.794-4,4-4s4,1.794,4,4S31.206,25.994,29,25.994z M29,19.994
					c-1.103,0-2,0.897-2,2s0.897,2,2,2s2-0.897,2-2S30.103,19.994,29,19.994z"/>
			</g>
		</g>
		<g>
			<path fill="#116FFF" d="M41,41.994H17c-0.553,0-1-0.447-1-1s0.447-1,1-1h24c0.553,0,1,0.447,1,1S41.553,41.994,41,41.994z"/>
		</g>
		<g>
			<path fill="#116FFF" d="M41,45.994H17c-0.553,0-1-0.447-1-1s0.447-1,1-1h24c0.553,0,1,0.447,1,1S41.553,45.994,41,45.994z"/>
		</g>
		<g>
			<path fill="#116FFF" d="M35,49.994H23c-0.553,0-1-0.447-1-1s0.447-1,1-1h12c0.553,0,1,0.447,1,1S35.553,49.994,35,49.994z"/>
		</g>
		<g>
			<g>
				<path fill="#116FFF" d="M58,16.994c-0.553,0-1-0.447-1-1c0-0.552-0.448-1-1-1s-1,0.448-1,1c0,0.553-0.447,1-1,1s-1-0.447-1-1
					c0-1.654,1.346-3,3-3s3,1.346,3,3C59,16.547,58.553,16.994,58,16.994z"/>
			</g>
			<g>
				<path fill="#116FFF" d="M54,50.994c-0.553,0-1-0.447-1-1v-34c0-0.553,0.447-1,1-1s1,0.447,1,1v34
					C55,50.547,54.553,50.994,54,50.994z"/>
			</g>
			<g>
				<path fill="#116FFF" d="M58,50.994c-0.553,0-1-0.447-1-1v-34c0-0.553,0.447-1,1-1s1,0.447,1,1v34
					C59,50.547,58.553,50.994,58,50.994z"/>
			</g>
			<g>
				<path fill="#116FFF" d="M56.001,53.994c-0.323,0-0.641-0.156-0.833-0.445l-2-3c-0.307-0.46-0.183-1.08,0.277-1.387
					c0.46-0.306,1.08-0.182,1.387,0.277l2,3c0.307,0.46,0.183,1.08-0.277,1.387C56.384,53.939,56.191,53.994,56.001,53.994z"/>
			</g>
			<g>
				<path fill="#116FFF" d="M55.999,53.994c-0.19,0-0.383-0.055-0.554-0.168c-0.46-0.307-0.584-0.927-0.277-1.387l2-3
					c0.306-0.459,0.925-0.583,1.387-0.277c0.46,0.307,0.584,0.927,0.277,1.387l-2,3C56.64,53.838,56.322,53.994,55.999,53.994z"/>
			</g>
			<g>
				<path fill="#116FFF" d="M56,54.994c-0.553,0-1-0.447-1-1v-1c0-0.553,0.447-1,1-1s1,0.447,1,1v1
					C57,54.547,56.553,54.994,56,54.994z"/>
			</g>
			<g>
				<path fill="#116FFF" d="M58,48.994h-4c-0.553,0-1-0.447-1-1s0.447-1,1-1h4c0.553,0,1,0.447,1,1S58.553,48.994,58,48.994z"/>
			</g>
			<g>
				<path fill="#116FFF" d="M61,19.994c-0.553,0-1-0.447-1-1c0-0.552-0.448-1-1-1c-0.553,0-1-0.447-1-1s0.447-1,1-1
					c1.654,0,3,1.346,3,3C62,19.547,61.553,19.994,61,19.994z"/>
			</g>
			<g>
				<path fill="#116FFF" d="M61,31.994c-0.553,0-1-0.447-1-1v-12c0-0.553,0.447-1,1-1s1,0.447,1,1v12
					C62,31.547,61.553,31.994,61,31.994z"/>
			</g>
			<g>
				<path fill="#116FFF" d="M59,17.994h-1c-0.553,0-1-0.447-1-1s0.447-1,1-1h1c0.553,0,1,0.447,1,1S59.553,17.994,59,17.994z"/>
			</g>
			<g>
				<path fill="#116FFF" d="M58,26.994h-4c-0.553,0-1-0.447-1-1s0.447-1,1-1h4c0.553,0,1,0.447,1,1S58.553,26.994,58,26.994z"/>
			</g>
		</g>
	</g>
</g>
<g id="_x34_9_human_x2C__resource_x2C__conveyor_x2C__business_x2C__office_x2C__corporation_x2C__job">
</g>
<g id="_x34_8_knowledge_x2C__training_x2C__growth_x2C__book_x2C__business_x2C__office_x2C__corporation">
</g>
<g id="_x34_7_skill_x2C__competence_x2C__experience_x2C__business_x2C__office_x2C__corporation_x2C__job">
</g>
<g id="_x34_6_target_x2C__success_x2C__victory_x2C__business_x2C__office_x2C__corporation_x2C__job">
</g>
<g id="_x34_5_inbox_x2C__letter_x2C__email_x2C__business_x2C__office_x2C__corporation_x2C__job">
</g>
<g id="_x34_4_document_x2C__workflow_x2C__sharing_x2C__business_x2C__office_x2C__corporation_x2C__job">
</g>
<g id="_x34_3_budget_x2C__allocation_x2C__money_x2C__business_x2C__office_x2C__corporation_x2C__job">
</g>
<g id="_x34_2_case_x2C__task_x2C__project_x2C__business_x2C__office_x2C__corporation_x2C__job">
</g>
<g id="_x34_1_structure_x2C__structuring_x2C__tasks_x2C__business_x2C__office_x2C__corporation_x2C__job">
</g>
<g id="_x34_0_choice_x2C__dilemma_x2C__question_x2C__business_x2C__office_x2C__corporation_x2C__job">
</g>
<g id="_x33_9_workplace_x2C__table_x2C__laptop_x2C__business_x2C__office_x2C__corporation_x2C__job">
</g>
<g id="_x33_8_bribe_x2C__bag_x2C__money_x2C__business_x2C__office_x2C__corporation_x2C__job">
</g>
<g id="_x33_7_corruption_x2C__forage_x2C__money_x2C__business_x2C__office_x2C__corporation_x2C__job">
</g>
<g id="_x33_6_career_x2C__ladder_x2C__success_x2C__business_x2C__office_x2C__corporation_x2C__job">
</g>
<g id="_x33_5_review_x2C__feedback_x2C__rating_x2C__business_x2C__office_x2C__corporation_x2C__job">
</g>
<g id="_x33_4_manipulation_x2C__thread_x2C__puppet_x2C__business_x2C__office_x2C__corporation_x2C__job">
</g>
<g id="_x33_3_location_x2C__map_x2C__pin_x2C__business_x2C__office_x2C__corporation_x2C__job">
</g>
<g id="_x33_2_retirement_x2C__old_x2C__man_x2C__door_x2C__business_x2C__office_x2C__corporation">
</g>
<g id="_x33_1_victory_x2C__success_x2C__medal_x2C__reward_x2C__business_x2C__office_x2C__corporation">
</g>
<g id="_x33_0_dismissal_x2C__box_x2C__door_x2C__business_x2C__office_x2C__corporation_x2C__job">
</g>
<g id="_x32_9_meeting_x2C__discussion_x2C__question_x2C__business_x2C__office_x2C__corporation_x2C__job">
</g>
<g id="_x32_8_strategy_x2C__vision_x2C__eye_x2C__chess_x2C__business_x2C__office_x2C__corporation">
</g>
<g id="_x32_7_board_x2C__task_x2C__process_x2C__business_x2C__office_x2C__corporation_x2C__job">
</g>
<g id="_x32_6_scheme_x2C__board_x2C__structure_x2C__business_x2C__office_x2C__corporation_x2C__job">
</g>
<g id="_x32_5_conflict_x2C__dialog_x2C__discussion_x2C__business_x2C__office_x2C__corporation_x2C__job">
</g>
<g id="_x32_4_documentation_x2C__document_x2C__repository_x2C__business_x2C__office_x2C__corporation_x2C__job">
</g>
<g id="_x32_3_sprint_x2C__programming_x2C__code_x2C__business_x2C__office_x2C__corporation_x2C__job">
</g>
<g id="_x32_2_cram_x2C__tablet_x2C__work_x2C__business_x2C__office_x2C__corporation_x2C__job">
</g>
<g id="_x32_1_leader_x2C__discoverer_x2C__flag_x2C__business_x2C__office_x2C__corporation_x2C__job">
</g>
<g id="_x32_0_rally_x2C__collective_x2C__arm_x2C__business_x2C__office_x2C__corporation_x2C__job">
</g>
<g id="_x31_9_consolidation_x2C__portfolio_x2C__puzzle_x2C__business_x2C__office_x2C__corporation_x2C__job">
</g>
<g id="_x31_8_idea_x2C__creative_x2C__work_x2C__business_x2C__office_x2C__corporation_x2C__job">
</g>
<g id="_x31_7_problem_x2C__stress_x2C__resistance_x2C__business_x2C__office_x2C__corporation_x2C__job">
</g>
<g id="_x31_6_hard_x2C__skills_x2C__skill_x2C__portfolio_x2C__book_x2C__business_x2C__office">
</g>
<g id="_x31_5_time_x2C__management_x2C__clock_x2C__deadline_x2C__business_x2C__office_x2C__corporation">
</g>
<g id="_x31_4_multitasking_x2C__task_x2C__work_x2C__business_x2C__office_x2C__corporation_x2C__job">
</g>
<g id="_x31_3_tranquility_x2C__yoga_x2C__lotus_x2C__posture_x2C__business_x2C__office_x2C__corporation">
</g>
<g id="_x31_2_corporate_x2C__party_x2C__business_x2C__office_x2C__corporation_x2C__job">
</g>
<g id="_x31_1_dialog_x2C__discussion_x2C__work_x2C__business_x2C__office_x2C__corporation_x2C__job">
</g>
<g id="_x31_0_listening_x2C__skill_x2C__dialog_x2C__business_x2C__office_x2C__corporation_x2C__job">
</g>
<g id="_x39__training_x2C__book_x2C__lesson_x2C__business_x2C__office_x2C__corporation_x2C__job">
</g>
<g id="_x38__dress_x2C__code_x2C__shirt_x2C__business_x2C__office_x2C__corporation_x2C__job">
</g>
<g id="_x37__task_x2C__program_x2C__ticket_x2C__business_x2C__office_x2C__corporation_x2C__job">
</g>
<g id="_x36__plan_x2C__graph_x2C__stage_x2C__business_x2C__office_x2C__corporation_x2C__job">
</g>
<g id="_x35__boss_x2C__king_x2C__crown_x2C__business_x2C__office_x2C__corporation_x2C__job">
</g>
<g id="_x34__structure_x2C__structuring_x2C__business_x2C__office_x2C__corporation_x2C__job">
</g>
<g id="_x33__soft_x2C__skills_x2C__communication_x2C__business_x2C__office_x2C__corporation_x2C__job">
</g>
<g id="_x32__office_x2C__house_x2C__portfolio_x2C__business_x2C__corporation_x2C__job">
</g>
<g id="_x31__corporate_x2C__rules_x2C__book_x2C__business_x2C__office_x2C__corporation_x2C__job">
</g>
</svg>
