<?xml version="1.0" encoding="utf-8"?>
<!-- Generator: Adobe Illustrator 16.0.0, SVG Export Plug-In . SVG Version: 6.00 Build 0)  -->
<!DOCTYPE svg PUBLIC "-//W3C//DTD SVG 1.1//EN" "http://www.w3.org/Graphics/SVG/1.1/DTD/svg11.dtd">
<svg version="1.1" xmlns="http://www.w3.org/2000/svg" xmlns:xlink="http://www.w3.org/1999/xlink" x="0px" y="0px" width="64px"
	 height="64px" viewBox="0 0 64 64" enable-background="new 0 0 64 64" xml:space="preserve">
<g id="_x35_0_document_x2C__optimization_x2C__documentation_x2C__business_x2C__office_x2C__corporation_x2C__job">
</g>
<g id="_x34_9_human_x2C__resource_x2C__conveyor_x2C__business_x2C__office_x2C__corporation_x2C__job">
</g>
<g id="_x34_8_knowledge_x2C__training_x2C__growth_x2C__book_x2C__business_x2C__office_x2C__corporation">
</g>
<g id="_x34_7_skill_x2C__competence_x2C__experience_x2C__business_x2C__office_x2C__corporation_x2C__job">
</g>
<g id="_x34_6_target_x2C__success_x2C__victory_x2C__business_x2C__office_x2C__corporation_x2C__job">
</g>
<g id="_x34_5_inbox_x2C__letter_x2C__email_x2C__business_x2C__office_x2C__corporation_x2C__job">
</g>
<g id="_x34_4_document_x2C__workflow_x2C__sharing_x2C__business_x2C__office_x2C__corporation_x2C__job">
</g>
<g id="_x34_3_budget_x2C__allocation_x2C__money_x2C__business_x2C__office_x2C__corporation_x2C__job">
</g>
<g id="_x34_2_case_x2C__task_x2C__project_x2C__business_x2C__office_x2C__corporation_x2C__job">
</g>
<g id="_x34_1_structure_x2C__structuring_x2C__tasks_x2C__business_x2C__office_x2C__corporation_x2C__job">
</g>
<g id="_x34_0_choice_x2C__dilemma_x2C__question_x2C__business_x2C__office_x2C__corporation_x2C__job">
</g>
<g id="_x33_9_workplace_x2C__table_x2C__laptop_x2C__business_x2C__office_x2C__corporation_x2C__job">
</g>
<g id="_x33_8_bribe_x2C__bag_x2C__money_x2C__business_x2C__office_x2C__corporation_x2C__job">
</g>
<g id="_x33_7_corruption_x2C__forage_x2C__money_x2C__business_x2C__office_x2C__corporation_x2C__job">
</g>
<g id="_x33_6_career_x2C__ladder_x2C__success_x2C__business_x2C__office_x2C__corporation_x2C__job">
</g>
<g id="_x33_5_review_x2C__feedback_x2C__rating_x2C__business_x2C__office_x2C__corporation_x2C__job">
</g>
<g id="_x33_4_manipulation_x2C__thread_x2C__puppet_x2C__business_x2C__office_x2C__corporation_x2C__job">
</g>
<g id="_x33_3_location_x2C__map_x2C__pin_x2C__business_x2C__office_x2C__corporation_x2C__job">
</g>
<g id="_x33_2_retirement_x2C__old_x2C__man_x2C__door_x2C__business_x2C__office_x2C__corporation">
</g>
<g id="_x33_1_victory_x2C__success_x2C__medal_x2C__reward_x2C__business_x2C__office_x2C__corporation">
</g>
<g id="_x33_0_dismissal_x2C__box_x2C__door_x2C__business_x2C__office_x2C__corporation_x2C__job">
</g>
<g id="_x32_9_meeting_x2C__discussion_x2C__question_x2C__business_x2C__office_x2C__corporation_x2C__job">
</g>
<g id="_x32_8_strategy_x2C__vision_x2C__eye_x2C__chess_x2C__business_x2C__office_x2C__corporation">
</g>
<g id="_x32_7_board_x2C__task_x2C__process_x2C__business_x2C__office_x2C__corporation_x2C__job">
</g>
<g id="_x32_6_scheme_x2C__board_x2C__structure_x2C__business_x2C__office_x2C__corporation_x2C__job">
</g>
<g id="_x32_5_conflict_x2C__dialog_x2C__discussion_x2C__business_x2C__office_x2C__corporation_x2C__job">
</g>
<g id="_x32_4_documentation_x2C__document_x2C__repository_x2C__business_x2C__office_x2C__corporation_x2C__job">
</g>
<g id="_x32_3_sprint_x2C__programming_x2C__code_x2C__business_x2C__office_x2C__corporation_x2C__job">
</g>
<g id="_x32_2_cram_x2C__tablet_x2C__work_x2C__business_x2C__office_x2C__corporation_x2C__job">
</g>
<g id="_x32_1_leader_x2C__discoverer_x2C__flag_x2C__business_x2C__office_x2C__corporation_x2C__job">
</g>
<g id="_x32_0_rally_x2C__collective_x2C__arm_x2C__business_x2C__office_x2C__corporation_x2C__job">
</g>
<g id="_x31_9_consolidation_x2C__portfolio_x2C__puzzle_x2C__business_x2C__office_x2C__corporation_x2C__job">
</g>
<g id="_x31_8_idea_x2C__creative_x2C__work_x2C__business_x2C__office_x2C__corporation_x2C__job">
</g>
<g id="_x31_7_problem_x2C__stress_x2C__resistance_x2C__business_x2C__office_x2C__corporation_x2C__job">
</g>
<g id="_x31_6_hard_x2C__skills_x2C__skill_x2C__portfolio_x2C__book_x2C__business_x2C__office">
</g>
<g id="_x31_5_time_x2C__management_x2C__clock_x2C__deadline_x2C__business_x2C__office_x2C__corporation">
</g>
<g id="_x31_4_multitasking_x2C__task_x2C__work_x2C__business_x2C__office_x2C__corporation_x2C__job">
</g>
<g id="_x31_3_tranquility_x2C__yoga_x2C__lotus_x2C__posture_x2C__business_x2C__office_x2C__corporation">
</g>
<g id="_x31_2_corporate_x2C__party_x2C__business_x2C__office_x2C__corporation_x2C__job">
</g>
<g id="_x31_1_dialog_x2C__discussion_x2C__work_x2C__business_x2C__office_x2C__corporation_x2C__job">
</g>
<g id="_x31_0_listening_x2C__skill_x2C__dialog_x2C__business_x2C__office_x2C__corporation_x2C__job">
</g>
<g id="_x39__training_x2C__book_x2C__lesson_x2C__business_x2C__office_x2C__corporation_x2C__job">
</g>
<g id="_x38__dress_x2C__code_x2C__shirt_x2C__business_x2C__office_x2C__corporation_x2C__job">
</g>
<g id="_x37__task_x2C__program_x2C__ticket_x2C__business_x2C__office_x2C__corporation_x2C__job">
</g>
<g id="_x36__plan_x2C__graph_x2C__stage_x2C__business_x2C__office_x2C__corporation_x2C__job">
</g>
<g id="_x35__boss_x2C__king_x2C__crown_x2C__business_x2C__office_x2C__corporation_x2C__job">
</g>
<g id="_x34__structure_x2C__structuring_x2C__business_x2C__office_x2C__corporation_x2C__job">
</g>
<g id="_x33__soft_x2C__skills_x2C__communication_x2C__business_x2C__office_x2C__corporation_x2C__job">
	<g>
		<circle fill="#D7E9FF" cx="32" cy="32" r="22"/>
	</g>
	<g>
		<path fill="#94C1FF" d="M32,10c-0.675,0-1.341,0.035-2,0.095C41.213,11.105,50,20.524,50,32s-8.787,20.895-20,21.905
			C30.659,53.965,31.325,54,32,54c12.15,0,22-9.85,22-22S44.15,10,32,10z"/>
	</g>
	<g>
		<path fill="#94C1FF" d="M41,26v3.03L38,27c0,0-2,1-5.5,1c-3.49,0-6.5-1-6.5-1l-3,2.03V26c0-4.42,3.58-8,8-8h6v4
			C39.21,22,41,23.79,41,26z"/>
	</g>
	<g>
		<g>
			<path fill="#5C9EFF" d="M37,22v-4h-4v6c2.21,0,4,0.79,4,3v0.37c0.644-0.199,1-0.37,1-0.37l3,2.03V26C41,23.79,39.21,22,37,22z"/>
		</g>
	</g>
	<g>
		<path fill="#D7E9FF" d="M41,29.03V32c0,3.53-2.04,6.59-5,8.06C34.8,40.66,33.44,41,32,41s-2.8-0.34-4-0.94
			c-2.95-1.46-4.98-4.5-5-8.01V32v-2.97L26,27c0,0,3.01,1,6.5,1c3.5,0,5.5-1,5.5-1L41,29.03z"/>
	</g>
	<g>
		<path fill="#94C1FF" d="M38,27c0,0-0.356,0.171-1,0.37V32c0,3.53-2.04,6.59-5,8.06c-0.627,0.313-1.298,0.552-2,0.712
			C30.643,40.918,31.312,41,32,41c1.44,0,2.8-0.34,4-0.94c2.96-1.47,5-4.529,5-8.06v-2.97L38,27z"/>
	</g>
	<g>
		<path fill="#FFFFFF" d="M32,41c1.44,0,2.8-0.34,4-0.94V44l-2,1l-2-1l-2,1l-2-1v-3.94C29.2,40.66,30.56,41,32,41z"/>
	</g>
	<g>
		<path fill="#94C1FF" d="M34,45l2-1h3c2.77,0,5,2.24,5,5v1.44C40.55,52.69,36.42,54,32,54c-4.43,0-8.55-1.31-12-3.56V49
			c0-2.76,2.24-5,5-5h3l2,1l2-1L34,45z"/>
	</g>
	<g>
		<g>
			<path fill="#5C9EFF" d="M39,44h-3l-0.168,0.084C38.201,44.481,40,46.524,40,49v3.493c1.409-0.551,2.75-1.238,4-2.053V49
				C44,46.24,41.77,44,39,44z"/>
		</g>
	</g>
	<g>
		<g>
			<g>
				<path fill="#116FFF" d="M19.999,50c-0.553,0-1-0.447-1-1c0-3.309,2.691-6,6-6c0.553,0,1,0.447,1,1s-0.447,1-1,1
					c-2.206,0-4,1.794-4,4C20.999,49.553,20.552,50,19.999,50z"/>
			</g>
			<g>
				<path fill="#116FFF" d="M27.999,45h-3c-0.553,0-1-0.447-1-1s0.447-1,1-1h3c0.553,0,1,0.447,1,1S28.552,45,27.999,45z"/>
			</g>
			<g>
				<path fill="#116FFF" d="M19.999,51.44c-0.553,0-1-0.447-1-1V49c0-0.553,0.447-1,1-1s1,0.447,1,1v1.44
					C20.999,50.993,20.552,51.44,19.999,51.44z"/>
			</g>
			<g>
				<path fill="#116FFF" d="M43.999,50c-0.553,0-1-0.447-1-1c0-2.206-1.794-4-4-4c-0.553,0-1-0.447-1-1s0.447-1,1-1
					c3.309,0,6,2.691,6,6C44.999,49.553,44.552,50,43.999,50z"/>
			</g>
			<g>
				<path fill="#116FFF" d="M38.999,45h-3c-0.553,0-1-0.447-1-1s0.447-1,1-1h3c0.553,0,1,0.447,1,1S39.552,45,38.999,45z"/>
			</g>
			<g>
				<path fill="#116FFF" d="M43.999,51.44c-0.553,0-1-0.447-1-1V49c0-0.553,0.447-1,1-1s1,0.447,1,1v1.44
					C44.999,50.993,44.552,51.44,43.999,51.44z"/>
			</g>
			<g>
				<path fill="#116FFF" d="M27.999,45c-0.553,0-1-0.447-1-1v-3.936c0-0.553,0.447-1,1-1s1,0.447,1,1V44
					C28.999,44.553,28.552,45,27.999,45z"/>
			</g>
			<g>
				<path fill="#116FFF" d="M35.999,45c-0.553,0-1-0.447-1-1v-3.936c0-0.553,0.447-1,1-1s1,0.447,1,1V44
					C36.999,44.553,36.552,45,35.999,45z"/>
			</g>
			<g>
				<path fill="#116FFF" d="M36.999,19h-6c-0.553,0-1-0.448-1-1s0.447-1,1-1h6c0.553,0,1,0.448,1,1S37.552,19,36.999,19z"/>
			</g>
			<g>
				<g>
					<path fill="#116FFF" d="M31.998,42c-5.514,0-9.999-4.485-9.999-9.998c0-0.552,0.447-1,1-1s1,0.448,1,1
						c0,4.41,3.588,7.998,7.999,7.998c4.412,0,8.001-3.588,8.001-7.998c0-0.552,0.447-1,1-1s1,0.448,1,1
						C41.999,37.515,37.513,42,31.998,42z"/>
				</g>
				<g>
					<path fill="#116FFF" d="M22.999,33.051c-0.553,0-1-0.448-1-1V26c0-0.552,0.447-1,1-1s1,0.448,1,1v6.051
						C23.999,32.603,23.552,33.051,22.999,33.051z"/>
				</g>
				<g>
					<path fill="#116FFF" d="M40.999,33.002c-0.553,0-1-0.448-1-1V26c0-0.552,0.447-1,1-1s1,0.448,1,1v6.002
						C41.999,32.554,41.552,33.002,40.999,33.002z"/>
				</g>
				<g>
					<path fill="#116FFF" d="M40.999,26.999c-0.553,0-1-0.448-1-1c0-1.654-1.346-2.999-3-2.999c-0.553,0-1-0.448-1-1s0.447-1,1-1
						c2.757,0,5,2.243,5,4.999C41.999,26.551,41.552,26.999,40.999,26.999z"/>
				</g>
				<g>
					<path fill="#116FFF" d="M36.999,23c-0.553,0-1-0.448-1-1v-4c0-0.552,0.447-1,1-1s1,0.448,1,1v4
						C37.999,22.552,37.552,23,36.999,23z"/>
				</g>
				<g>
					<path fill="#116FFF" d="M22.999,27c-0.553,0-1-0.448-1-1c0-4.962,4.037-9,9-9c0.553,0,1,0.448,1,1s-0.447,1-1,1
						c-3.859,0-7,3.14-7,7C23.999,26.552,23.552,27,22.999,27z"/>
				</g>
				<g>
					<g>
						<path fill="#116FFF" d="M40.998,30.025c-0.192,0-0.387-0.055-0.559-0.171l-3-2.025c-0.458-0.309-0.578-0.931-0.27-1.388
							c0.31-0.457,0.93-0.58,1.389-0.269l3,2.025c0.458,0.309,0.578,0.931,0.27,1.388C41.635,29.871,41.319,30.025,40.998,30.025z"
							/>
					</g>
					<g>
						<path fill="#116FFF" d="M32.499,29c-3.612,0-6.687-1.008-6.815-1.051c-0.523-0.174-0.807-0.739-0.634-1.263
							c0.174-0.524,0.74-0.812,1.264-0.635C26.343,26.061,29.222,27,32.499,27c3.178,0,5.04-0.888,5.059-0.897
							c0.493-0.241,1.094-0.038,1.337,0.457c0.243,0.494,0.043,1.09-0.449,1.335C38.354,27.94,36.185,29,32.499,29z"/>
					</g>
					<g>
						<path fill="#116FFF" d="M23,30.025c-0.321,0-0.637-0.154-0.83-0.44c-0.309-0.458-0.188-1.079,0.27-1.388l3-2.025
							c0.458-0.311,1.08-0.188,1.389,0.269c0.309,0.458,0.188,1.079-0.27,1.388l-3,2.025C23.387,29.97,23.192,30.025,23,30.025z"/>
					</g>
				</g>
			</g>
			<g>
				<path fill="#116FFF" d="M29.998,46c-0.15,0-0.303-0.034-0.446-0.105l-2-1c-0.494-0.247-0.694-0.848-0.447-1.342
					c0.248-0.494,0.849-0.691,1.342-0.447l2,1c0.494,0.247,0.694,0.848,0.447,1.342C30.718,45.798,30.365,46,29.998,46z"/>
			</g>
			<g>
				<path fill="#116FFF" d="M30,46c-0.367,0-0.72-0.202-0.896-0.553c-0.247-0.494-0.047-1.095,0.447-1.342l2-1
					c0.495-0.244,1.094-0.047,1.342,0.447c0.247,0.494,0.047,1.095-0.447,1.342l-2,1C30.303,45.966,30.15,46,30,46z"/>
			</g>
			<g>
				<path fill="#116FFF" d="M34,46c-0.367,0-0.72-0.202-0.896-0.553c-0.247-0.494-0.047-1.095,0.447-1.342l2-1
					c0.494-0.244,1.094-0.047,1.342,0.447c0.247,0.494,0.047,1.095-0.447,1.342l-2,1C34.303,45.966,34.15,46,34,46z"/>
			</g>
			<g>
				<path fill="#116FFF" d="M33.998,46c-0.15,0-0.303-0.034-0.446-0.105l-2-1c-0.494-0.247-0.694-0.848-0.447-1.342
					c0.248-0.494,0.848-0.691,1.342-0.447l2,1c0.494,0.247,0.694,0.848,0.447,1.342C34.718,45.798,34.365,46,33.998,46z"/>
			</g>
		</g>
		<g>
			<path fill="#116FFF" d="M31.999,55c-12.683,0-23-10.317-23-23c0-12.682,10.317-23,23-23s23,10.318,23,23
				C54.999,44.683,44.682,55,31.999,55z M31.999,11c-11.579,0-21,9.42-21,21c0,11.579,9.421,21,21,21s21-9.421,21-21
				C52.999,20.42,43.578,11,31.999,11z"/>
		</g>
		<g>
			<path fill="#116FFF" d="M31.999,64c-0.553,0-1-0.447-1-1v-9c0-0.553,0.447-1,1-1s1,0.447,1,1v9
				C32.999,63.553,32.552,64,31.999,64z"/>
		</g>
		<g>
			<path fill="#116FFF" d="M31.999,64c-0.256,0-0.512-0.098-0.707-0.293c-0.391-0.391-0.391-1.023,0-1.414l2-2
				c0.391-0.391,1.023-0.391,1.414,0s0.391,1.023,0,1.414l-2,2C32.511,63.902,32.255,64,31.999,64z"/>
		</g>
		<g>
			<path fill="#116FFF" d="M31.999,64c-0.256,0-0.512-0.098-0.707-0.293l-2-2c-0.391-0.391-0.391-1.023,0-1.414s1.023-0.391,1.414,0
				l2,2c0.391,0.391,0.391,1.023,0,1.414C32.511,63.902,32.255,64,31.999,64z"/>
		</g>
		<g>
			<path fill="#116FFF" d="M31.999,11c-0.553,0-1-0.448-1-1V1c0-0.552,0.447-1,1-1s1,0.448,1,1v9C32.999,10.552,32.552,11,31.999,11
				z"/>
		</g>
		<g>
			<path fill="#116FFF" d="M29.999,4c-0.256,0-0.512-0.098-0.707-0.293c-0.391-0.391-0.391-1.023,0-1.414l2-2
				c0.391-0.391,1.023-0.391,1.414,0s0.391,1.023,0,1.414l-2,2C30.511,3.902,30.255,4,29.999,4z"/>
		</g>
		<g>
			<path fill="#116FFF" d="M33.999,4c-0.256,0-0.512-0.098-0.707-0.293l-2-2c-0.391-0.391-0.391-1.023,0-1.414s1.023-0.391,1.414,0
				l2,2c0.391,0.391,0.391,1.023,0,1.414C34.511,3.902,34.255,4,33.999,4z"/>
		</g>
		<g>
			<path fill="#116FFF" d="M58.846,48.5c-0.17,0-0.342-0.043-0.499-0.134l-7.795-4.5c-0.479-0.276-0.643-0.888-0.366-1.366
				c0.276-0.478,0.889-0.644,1.366-0.366l7.795,4.5c0.479,0.276,0.643,0.888,0.366,1.366C59.527,48.32,59.191,48.5,58.846,48.5z"/>
		</g>
		<g>
			<path fill="#116FFF" d="M58.846,48.5c-0.441,0-0.845-0.294-0.965-0.741l-0.732-2.732c-0.144-0.533,0.174-1.082,0.707-1.225
				c0.534-0.144,1.081,0.173,1.225,0.707l0.732,2.732c0.144,0.533-0.174,1.082-0.707,1.225C59.019,48.489,58.932,48.5,58.846,48.5z"
				/>
		</g>
		<g>
			<path fill="#116FFF" d="M56.113,49.232c-0.441,0-0.845-0.294-0.965-0.741c-0.144-0.533,0.174-1.082,0.707-1.225l2.732-0.732
				c0.533-0.144,1.081,0.173,1.225,0.707c0.144,0.533-0.174,1.082-0.707,1.225l-2.732,0.732
				C56.286,49.222,56.199,49.232,56.113,49.232z"/>
		</g>
		<g>
			<path fill="#116FFF" d="M12.946,22c-0.17,0-0.342-0.043-0.499-0.134l-7.794-4.5C4.175,17.09,4.011,16.478,4.287,16
				c0.276-0.479,0.888-0.643,1.366-0.366l7.794,4.5c0.479,0.276,0.643,0.888,0.366,1.366C13.628,21.821,13.292,22,12.946,22z"/>
		</g>
		<g>
			<path fill="#116FFF" d="M5.884,20.232c-0.441,0-0.846-0.295-0.965-0.742l-0.731-2.732c-0.143-0.534,0.174-1.082,0.707-1.225
				s1.082,0.174,1.225,0.707l0.731,2.732c0.143,0.534-0.174,1.082-0.707,1.225C6.057,20.221,5.97,20.232,5.884,20.232z"/>
		</g>
		<g>
			<path fill="#116FFF" d="M5.152,17.5c-0.441,0-0.846-0.295-0.965-0.742c-0.143-0.533,0.174-1.082,0.707-1.225l2.731-0.732
				c0.534-0.142,1.083,0.173,1.225,0.707c0.143,0.533-0.174,1.082-0.707,1.225l-2.731,0.732C5.325,17.489,5.238,17.5,5.152,17.5z"/>
		</g>
		<g>
			<path fill="#116FFF" d="M51.053,22c-0.346,0-0.682-0.179-0.867-0.5c-0.276-0.479-0.112-1.09,0.366-1.366l7.795-4.5
				c0.477-0.276,1.089-0.113,1.366,0.366c0.276,0.479,0.112,1.09-0.366,1.366l-7.795,4.5C51.395,21.957,51.223,22,51.053,22z"/>
		</g>
		<g>
			<path fill="#116FFF" d="M58.848,17.5c-0.086,0-0.173-0.011-0.26-0.035l-2.732-0.732c-0.533-0.143-0.85-0.691-0.707-1.225
				s0.692-0.851,1.225-0.707l2.732,0.732c0.533,0.143,0.85,0.691,0.707,1.225C59.693,17.205,59.289,17.5,58.848,17.5z"/>
		</g>
		<g>
			<path fill="#116FFF" d="M58.116,20.232c-0.086,0-0.173-0.011-0.26-0.035c-0.533-0.143-0.85-0.691-0.707-1.225l0.731-2.732
				c0.143-0.533,0.692-0.848,1.225-0.707c0.533,0.143,0.85,0.691,0.707,1.225l-0.731,2.732
				C58.962,19.938,58.558,20.232,58.116,20.232z"/>
		</g>
		<g>
			<path fill="#116FFF" d="M5.154,48.499c-0.346,0-0.682-0.18-0.867-0.5c-0.276-0.479-0.112-1.09,0.366-1.366l7.795-4.499
				c0.476-0.277,1.089-0.111,1.366,0.366c0.276,0.479,0.112,1.09-0.366,1.366l-7.795,4.499C5.496,48.456,5.324,48.499,5.154,48.499z
				"/>
		</g>
		<g>
			<path fill="#116FFF" d="M7.887,49.231c-0.086,0-0.173-0.011-0.26-0.034l-2.732-0.732c-0.533-0.143-0.851-0.691-0.707-1.225
				c0.144-0.534,0.692-0.849,1.225-0.707l2.732,0.732c0.533,0.143,0.851,0.691,0.707,1.225C8.731,48.938,8.328,49.231,7.887,49.231z
				"/>
		</g>
		<g>
			<path fill="#116FFF" d="M5.154,48.499c-0.086,0-0.173-0.011-0.26-0.034c-0.533-0.143-0.851-0.691-0.707-1.225l0.732-2.731
				c0.144-0.534,0.691-0.85,1.225-0.707s0.851,0.691,0.707,1.225l-0.732,2.731C5.999,48.205,5.596,48.499,5.154,48.499z"/>
		</g>
	</g>
</g>
<g id="_x32__office_x2C__house_x2C__portfolio_x2C__business_x2C__corporation_x2C__job">
</g>
<g id="_x31__corporate_x2C__rules_x2C__book_x2C__business_x2C__office_x2C__corporation_x2C__job">
</g>
</svg>
