<?xml version="1.0" encoding="utf-8"?>
<!-- Generator: Adobe Illustrator 16.0.0, SVG Export Plug-In . SVG Version: 6.00 Build 0)  -->
<!DOCTYPE svg PUBLIC "-//W3C//DTD SVG 1.1//EN" "http://www.w3.org/Graphics/SVG/1.1/DTD/svg11.dtd">
<svg version="1.1" xmlns="http://www.w3.org/2000/svg" xmlns:xlink="http://www.w3.org/1999/xlink" x="0px" y="0px" width="64px"
	 height="64px" viewBox="0 0 64 64" enable-background="new 0 0 64 64" xml:space="preserve">
<g id="_x35_0_document_x2C__optimization_x2C__documentation_x2C__business_x2C__office_x2C__corporation_x2C__job">
</g>
<g id="_x34_9_human_x2C__resource_x2C__conveyor_x2C__business_x2C__office_x2C__corporation_x2C__job">
</g>
<g id="_x34_8_knowledge_x2C__training_x2C__growth_x2C__book_x2C__business_x2C__office_x2C__corporation">
</g>
<g id="_x34_7_skill_x2C__competence_x2C__experience_x2C__business_x2C__office_x2C__corporation_x2C__job">
</g>
<g id="_x34_6_target_x2C__success_x2C__victory_x2C__business_x2C__office_x2C__corporation_x2C__job">
</g>
<g id="_x34_5_inbox_x2C__letter_x2C__email_x2C__business_x2C__office_x2C__corporation_x2C__job">
</g>
<g id="_x34_4_document_x2C__workflow_x2C__sharing_x2C__business_x2C__office_x2C__corporation_x2C__job">
</g>
<g id="_x34_3_budget_x2C__allocation_x2C__money_x2C__business_x2C__office_x2C__corporation_x2C__job">
</g>
<g id="_x34_2_case_x2C__task_x2C__project_x2C__business_x2C__office_x2C__corporation_x2C__job">
</g>
<g id="_x34_1_structure_x2C__structuring_x2C__tasks_x2C__business_x2C__office_x2C__corporation_x2C__job">
</g>
<g id="_x34_0_choice_x2C__dilemma_x2C__question_x2C__business_x2C__office_x2C__corporation_x2C__job">
</g>
<g id="_x33_9_workplace_x2C__table_x2C__laptop_x2C__business_x2C__office_x2C__corporation_x2C__job">
</g>
<g id="_x33_8_bribe_x2C__bag_x2C__money_x2C__business_x2C__office_x2C__corporation_x2C__job">
</g>
<g id="_x33_7_corruption_x2C__forage_x2C__money_x2C__business_x2C__office_x2C__corporation_x2C__job">
</g>
<g id="_x33_6_career_x2C__ladder_x2C__success_x2C__business_x2C__office_x2C__corporation_x2C__job">
</g>
<g id="_x33_5_review_x2C__feedback_x2C__rating_x2C__business_x2C__office_x2C__corporation_x2C__job">
</g>
<g id="_x33_4_manipulation_x2C__thread_x2C__puppet_x2C__business_x2C__office_x2C__corporation_x2C__job">
</g>
<g id="_x33_3_location_x2C__map_x2C__pin_x2C__business_x2C__office_x2C__corporation_x2C__job">
</g>
<g id="_x33_2_retirement_x2C__old_x2C__man_x2C__door_x2C__business_x2C__office_x2C__corporation">
</g>
<g id="_x33_1_victory_x2C__success_x2C__medal_x2C__reward_x2C__business_x2C__office_x2C__corporation">
</g>
<g id="_x33_0_dismissal_x2C__box_x2C__door_x2C__business_x2C__office_x2C__corporation_x2C__job">
</g>
<g id="_x32_9_meeting_x2C__discussion_x2C__question_x2C__business_x2C__office_x2C__corporation_x2C__job">
</g>
<g id="_x32_8_strategy_x2C__vision_x2C__eye_x2C__chess_x2C__business_x2C__office_x2C__corporation">
</g>
<g id="_x32_7_board_x2C__task_x2C__process_x2C__business_x2C__office_x2C__corporation_x2C__job">
</g>
<g id="_x32_6_scheme_x2C__board_x2C__structure_x2C__business_x2C__office_x2C__corporation_x2C__job">
</g>
<g id="_x32_5_conflict_x2C__dialog_x2C__discussion_x2C__business_x2C__office_x2C__corporation_x2C__job">
</g>
<g id="_x32_4_documentation_x2C__document_x2C__repository_x2C__business_x2C__office_x2C__corporation_x2C__job">
</g>
<g id="_x32_3_sprint_x2C__programming_x2C__code_x2C__business_x2C__office_x2C__corporation_x2C__job">
</g>
<g id="_x32_2_cram_x2C__tablet_x2C__work_x2C__business_x2C__office_x2C__corporation_x2C__job">
</g>
<g id="_x32_1_leader_x2C__discoverer_x2C__flag_x2C__business_x2C__office_x2C__corporation_x2C__job">
</g>
<g id="_x32_0_rally_x2C__collective_x2C__arm_x2C__business_x2C__office_x2C__corporation_x2C__job">
</g>
<g id="_x31_9_consolidation_x2C__portfolio_x2C__puzzle_x2C__business_x2C__office_x2C__corporation_x2C__job">
</g>
<g id="_x31_8_idea_x2C__creative_x2C__work_x2C__business_x2C__office_x2C__corporation_x2C__job">
</g>
<g id="_x31_7_problem_x2C__stress_x2C__resistance_x2C__business_x2C__office_x2C__corporation_x2C__job">
</g>
<g id="_x31_6_hard_x2C__skills_x2C__skill_x2C__portfolio_x2C__book_x2C__business_x2C__office">
	<g>
		<path fill="#94C1FF" d="M11,13.5c5.52,0,10,4.48,10,10s-4.48,10-10,10s-10-4.48-10-10S5.48,13.5,11,13.5z"/>
	</g>
	<g>
		<path fill="#5C9EFF" d="M11,13.5c-0.685,0-1.354,0.069-2,0.201c4.563,0.928,8,4.964,8,9.799s-3.438,8.871-8,9.799
			c0.646,0.132,1.315,0.201,2,0.201c5.52,0,10-4.48,10-10S16.52,13.5,11,13.5z"/>
	</g>
	<g>
		<path fill="#94C1FF" d="M32,1.5c5.52,0,10,4.48,10,10s-4.48,10-10,10s-10-4.48-10-10S26.48,1.5,32,1.5z"/>
	</g>
	<g>
		<path fill="#5C9EFF" d="M32,1.5c-0.685,0-1.354,0.069-2,0.201c4.563,0.928,8,4.964,8,9.799s-3.438,8.871-8,9.799
			c0.646,0.132,1.315,0.201,2,0.201c5.52,0,10-4.48,10-10S37.52,1.5,32,1.5z"/>
	</g>
	<g>
		<path fill="#94C1FF" d="M53,13.5c5.52,0,10,4.48,10,10c0,5.53-4.48,10-10,10c-5.53,0-10-4.47-10-10C43,17.98,47.47,13.5,53,13.5z"
			/>
	</g>
	<g>
		<path fill="#5C9EFF" d="M53,13.5c-0.685,0-1.354,0.069-2,0.201c4.563,0.928,8,4.964,8,9.799s-3.438,8.871-8,9.799
			c0.646,0.132,1.315,0.201,2,0.201c5.52,0,10-4.48,10-10S58.52,13.5,53,13.5z"/>
	</g>
	<g>
		<path fill="#D7E9FF" d="M43,39.497v4c0,4.27-2.44,7.98-6,9.8c-1.5,0.771-3.2,1.2-5,1.2s-3.5-0.43-5-1.2c-3.56-1.819-6-5.53-6-9.8
			v-4l3-3c0,0,3.71,2,8,2s8-2,8-2L43,39.497z"/>
	</g>
	<g>
		<path fill="#94C1FF" d="M24,36.497l-3,3v-2c0-6.07,4.93-11,11-11s11,4.93,11,11v2l-3-3c0,0-3.71,2-8,2S24,36.497,24,36.497z"/>
	</g>
	<g>
		<path fill="#94C1FF" d="M38.977,36.975C38.984,37.148,39,37.32,39,37.497v2v4c0,4.27-2.44,7.98-6,9.8
			c-0.929,0.478-1.941,0.805-3,1c0.002,0,0.004,0.001,0.006,0.001c0.305,0.056,0.613,0.101,0.925,0.136
			c0.353,0.034,0.707,0.063,1.069,0.063c1.8,0,3.5-0.43,5-1.2c3.56-1.819,6-5.53,6-9.8v-4l-3-3
			C40,36.497,39.624,36.699,38.977,36.975z"/>
	</g>
	<g>
		<path fill="#5C9EFF" d="M32,26.497c-0.345,0-0.684,0.021-1.021,0.052c-0.321,0.031-0.638,0.078-0.951,0.135
			c-0.009,0.002-0.019,0.002-0.027,0.004c4.947,0.913,8.732,5.137,8.976,10.287C39.624,36.699,40,36.497,40,36.497l3,3v-2
			C43,31.427,38.07,26.497,32,26.497z"/>
	</g>
	<g>
		<rect x="6" y="18.5" fill="#D7E9FF" width="10" height="3"/>
	</g>
	<g>
		<rect x="6" y="21.5" fill="#FFFFFF" width="10" height="7"/>
	</g>
	<g>
		<path fill="#FFFFFF" d="M35,12.5v4h-6c-1.1,0-2-0.89-2-2c0-1.1,0.9-2,2-2H35z"/>
	</g>
	<g>
		<path fill="#D7E9FF" d="M36,6.5v6h-1h-6c-1.1,0-2,0.9-2,2v-6c0-1.11,0.89-2,2-2H36z"/>
	</g>
	<g>
		<path fill="#FFFFFF" d="M58,21.5v5c0,0.55-0.45,1-1,1h-8c-0.55,0-1-0.45-1-1v-5c0-0.55,0.45-1,1-1h2h4h2
			C57.55,20.5,58,20.95,58,21.5z"/>
	</g>
	<g>
		<path fill="#94C1FF" d="M27,53.3c1.5,0.771,3.2,1.2,5,1.2s3.5-0.43,5-1.2v3.2l-2,2l-3-1l-3,1l-2-2V53.3z"/>
	</g>
	<g>
		<path fill="#94C1FF" d="M29,58.5l3-1l3,1l2-2h4c3.32,0,6,2.68,6,6H17c0-3.32,2.68-6,6-6h4L29,58.5z"/>
	</g>
	<g>
		<g>
			<path fill="#5C9EFF" d="M41,56.5h-4c3.32,0,6,2.68,6,6h4C47,59.18,44.32,56.5,41,56.5z"/>
		</g>
	</g>
	<g>
		<g>
			<g>
				<g>
					<path fill="#116FFF" d="M17,63.5c-0.553,0-1-0.447-1-1c0-3.859,3.141-7,7-7c0.553,0,1,0.447,1,1s-0.447,1-1,1
						c-2.757,0-5,2.243-5,5C18,63.053,17.553,63.5,17,63.5z"/>
				</g>
				<g>
					<path fill="#116FFF" d="M27,57.502C27,57.502,27,57.502,27,57.502L22.999,57.5c-0.552,0-0.999-0.448-0.999-1
						c0-0.553,0.448-1,1-1c0,0,0,0,0.001,0l4,0.002c0.552,0,0.999,0.448,0.999,1C28,57.055,27.552,57.502,27,57.502z"/>
				</g>
				<g>
					<path fill="#116FFF" d="M47,63.5c-0.553,0-1-0.447-1-1c0-2.757-2.243-5-5-5c-0.553,0-1-0.447-1-1s0.447-1,1-1
						c3.859,0,7,3.141,7,7C48,63.053,47.553,63.5,47,63.5z"/>
				</g>
				<g>
					<path fill="#116FFF" d="M37,57.502c-0.552,0-1-0.447-1-1c0-0.552,0.447-1,0.999-1l4-0.002c0.001,0,0.001,0,0.001,0
						c0.552,0,1,0.447,1,1c0,0.552-0.447,1-0.999,1L37,57.502C37,57.502,37,57.502,37,57.502z"/>
				</g>
				<g>
					<path fill="#116FFF" d="M27,57.502c-0.553,0-1-0.447-1-1v-3.201c0-0.553,0.447-1,1-1s1,0.447,1,1v3.201
						C28,57.055,27.553,57.502,27,57.502z"/>
				</g>
				<g>
					<path fill="#116FFF" d="M37,57.5c-0.553,0-1-0.447-1-1v-3.199c0-0.553,0.447-1,1-1s1,0.447,1,1V56.5
						C38,57.053,37.553,57.5,37,57.5z"/>
				</g>
				<g>
					<path fill="#116FFF" d="M32,55.5c-6.617,0-12-5.383-12-12c0-0.553,0.447-1,1-1s1,0.447,1,1c0,5.514,4.486,10,10,10
						s10-4.486,10-10c0-0.553,0.447-1,1-1s1,0.447,1,1C44,50.117,38.617,55.5,32,55.5z"/>
				</g>
				<g>
					<path fill="#116FFF" d="M43,38.5c-0.553,0-1-0.447-1-1c0-5.514-4.486-10-10-10s-10,4.486-10,10c0,0.553-0.447,1-1,1
						s-1-0.447-1-1c0-6.617,5.383-12,12-12s12,5.383,12,12C44,38.053,43.553,38.5,43,38.5z"/>
				</g>
				<g>
					<path fill="#116FFF" d="M21,44.502c-0.553,0-1-0.447-1-1V37.5c0-0.553,0.447-1,1-1s1,0.447,1,1v6.002
						C22,44.055,21.553,44.502,21,44.502z"/>
				</g>
				<g>
					<path fill="#116FFF" d="M43,44.502c-0.553,0-1-0.447-1-1V37.5c0-0.553,0.447-1,1-1s1,0.447,1,1v6.002
						C44,44.055,43.553,44.502,43,44.502z"/>
				</g>
				<g>
					<g>
						<path fill="#116FFF" d="M43,40.5c-0.256,0-0.512-0.098-0.707-0.293l-3-3c-0.391-0.391-0.391-1.023,0-1.414
							s1.023-0.391,1.414,0l3,3c0.391,0.391,0.391,1.023,0,1.414C43.512,40.402,43.256,40.5,43,40.5z"/>
					</g>
					<g>
						<path fill="#116FFF" d="M32,39.5c-4.485,0-8.313-2.033-8.474-2.119c-0.486-0.262-0.668-0.867-0.407-1.354
							s0.865-0.671,1.354-0.408C24.508,35.638,28.032,37.5,32,37.5c3.987,0,7.491-1.861,7.526-1.881
							c0.484-0.261,1.093-0.079,1.354,0.407s0.079,1.093-0.407,1.354C40.313,37.467,36.485,39.5,32,39.5z"/>
					</g>
					<g>
						<path fill="#116FFF" d="M21,40.5c-0.256,0-0.512-0.098-0.707-0.293c-0.391-0.391-0.391-1.023,0-1.414l3-3
							c0.391-0.391,1.023-0.391,1.414,0s0.391,1.023,0,1.414l-3,3C21.512,40.402,21.256,40.5,21,40.5z"/>
					</g>
				</g>
				<g>
					<path fill="#116FFF" d="M29,59.5c-0.256,0-0.512-0.098-0.707-0.293l-2-1.998c-0.391-0.39-0.391-1.023,0-1.414
						s1.023-0.391,1.414,0l2,1.998c0.391,0.39,0.391,1.023,0,1.414C29.512,59.402,29.256,59.5,29,59.5z"/>
				</g>
				<g>
					<path fill="#116FFF" d="M29,59.5c-0.419,0-0.809-0.265-0.948-0.684c-0.175-0.524,0.108-1.091,0.632-1.265l3-1
						c0.527-0.176,1.09,0.108,1.265,0.632c0.175,0.524-0.108,1.091-0.632,1.265l-3,1C29.211,59.483,29.104,59.5,29,59.5z"/>
				</g>
				<g>
					<path fill="#116FFF" d="M35,59.5c-0.256,0-0.512-0.098-0.707-0.293c-0.391-0.391-0.391-1.024,0-1.414l2-1.998
						c0.391-0.391,1.023-0.391,1.414,0s0.391,1.024,0,1.414l-2,1.998C35.512,59.402,35.256,59.5,35,59.5z"/>
				</g>
				<g>
					<path fill="#116FFF" d="M35,59.5c-0.104,0-0.211-0.017-0.316-0.052l-3-1c-0.523-0.174-0.807-0.74-0.632-1.265
						c0.175-0.523,0.736-0.808,1.265-0.632l3,1c0.523,0.174,0.807,0.74,0.632,1.265C35.809,59.235,35.419,59.5,35,59.5z"/>
				</g>
			</g>
		</g>
		<g>
			<path fill="#116FFF" d="M32,22.5c-6.065,0-11-4.935-11-11s4.935-11,11-11s11,4.935,11,11S38.065,22.5,32,22.5z M32,2.5
				c-4.963,0-9,4.037-9,9s4.037,9,9,9s9-4.037,9-9S36.963,2.5,32,2.5z"/>
		</g>
		<g>
			<path fill="#116FFF" d="M10.999,34.5C4.935,34.5,0,29.565,0,23.5s4.935-11,10.999-11c2.939,0,5.701,1.145,7.779,3.222
				c2.077,2.077,3.222,4.84,3.221,7.778c0.001,2.938-1.144,5.701-3.221,7.778C16.7,33.355,13.938,34.5,10.999,34.5z M10.999,14.5
				C6.037,14.5,2,18.537,2,23.5s4.037,9,8.999,9c2.404,0,4.665-0.937,6.365-2.636c1.699-1.7,2.635-3.96,2.635-6.364
				s-0.936-4.664-2.635-6.364C15.664,15.437,13.403,14.5,10.999,14.5z"/>
		</g>
		<g>
			<path fill="#116FFF" d="M52.999,34.504L52.999,34.504c-6.065,0-11-4.936-11-11.002C42,17.436,46.935,12.5,52.999,12.5
				c6.065,0.004,11,4.939,11.001,11.002C63.999,29.566,59.064,34.502,52.999,34.504z M52.998,14.5c-4.961,0-8.998,4.038-8.999,9.002
				c0,4.964,4.037,9.002,9,9.002c4.962-0.002,9-4.04,9.001-9.002C61.999,18.542,57.961,14.504,52.998,14.5z"/>
		</g>
		<g>
			<path fill="#116FFF" d="M16,29.5H6c-0.553,0-1-0.447-1-1v-7c0-0.553,0.447-1,1-1h10c0.553,0,1,0.447,1,1v7
				C17,29.053,16.553,29.5,16,29.5z M7,27.5h8v-5H7V27.5z"/>
		</g>
		<g>
			<path fill="#116FFF" d="M16,22.5H6c-0.553,0-1-0.447-1-1v-3c0-0.553,0.447-1,1-1h10c0.553,0,1,0.447,1,1v3
				C17,22.053,16.553,22.5,16,22.5z M7,20.5h8v-1H7V20.5z"/>
		</g>
		<g>
			<path fill="#116FFF" d="M29,17.5c-1.654,0-3-1.346-3-3s1.346-3,3-3c0.553,0,1,0.447,1,1s-0.447,1-1,1c-0.552,0-1,0.448-1,1
				s0.448,1,1,1c0.553,0,1,0.447,1,1S29.553,17.5,29,17.5z"/>
		</g>
		<g>
			<path fill="#116FFF" d="M36,17.5h-7c-0.553,0-1-0.447-1-1s0.447-1,1-1h7c0.553,0,1,0.447,1,1S36.553,17.5,36,17.5z"/>
		</g>
		<g>
			<path fill="#116FFF" d="M36,13.5h-7c-0.553,0-1-0.447-1-1s0.447-1,1-1h7c0.553,0,1,0.447,1,1S36.553,13.5,36,13.5z"/>
		</g>
		<g>
			<path fill="#116FFF" d="M35,17.5c-0.553,0-1-0.447-1-1v-4c0-0.553,0.447-1,1-1s1,0.447,1,1v4C36,17.053,35.553,17.5,35,17.5z"/>
		</g>
		<g>
			<path fill="#116FFF" d="M27,9.5c-0.553,0-1-0.447-1-1c0-1.654,1.346-3,3-3c0.553,0,1,0.447,1,1s-0.447,1-1,1
				c-0.552,0-1,0.448-1,1C28,9.053,27.553,9.5,27,9.5z"/>
		</g>
		<g>
			<path fill="#116FFF" d="M36,7.5h-7c-0.553,0-1-0.447-1-1s0.447-1,1-1h7c0.553,0,1,0.447,1,1S36.553,7.5,36,7.5z"/>
		</g>
		<g>
			<path fill="#116FFF" d="M36,13.5c-0.553,0-1-0.447-1-1v-6c0-0.553,0.447-1,1-1s1,0.447,1,1v6C37,13.053,36.553,13.5,36,13.5z"/>
		</g>
		<g>
			<path fill="#116FFF" d="M27,15.5c-0.553,0-1-0.447-1-1v-6c0-0.553,0.447-1,1-1s1,0.447,1,1v6C28,15.053,27.553,15.5,27,15.5z"/>
		</g>
		<g>
			<g>
				<path fill="#116FFF" d="M57,28.5h-8c-1.103,0-2-0.897-2-2v-5c0-1.103,0.897-2,2-2h8c1.103,0,2,0.897,2,2v5
					C59,27.603,58.103,28.5,57,28.5z M57,26.5v1V26.5L57,26.5L57,26.5z M49,21.5v5h7.997l0.003-5H49z"/>
			</g>
			<g>
				<path fill="#116FFF" d="M51,21.5c-0.553,0-1-0.447-1-1v-3c0-0.553,0.447-1,1-1s1,0.447,1,1v3C52,21.053,51.553,21.5,51,21.5z"/>
			</g>
			<g>
				<path fill="#116FFF" d="M55,18.5h-4c-0.553,0-1-0.447-1-1s0.447-1,1-1h4c0.553,0,1,0.447,1,1S55.553,18.5,55,18.5z"/>
			</g>
			<g>
				<path fill="#116FFF" d="M55,21.5c-0.553,0-1-0.447-1-1v-3c0-0.553,0.447-1,1-1s1,0.447,1,1v3C56,21.053,55.553,21.5,55,21.5z"/>
			</g>
		</g>
	</g>
</g>
<g id="_x31_5_time_x2C__management_x2C__clock_x2C__deadline_x2C__business_x2C__office_x2C__corporation">
</g>
<g id="_x31_4_multitasking_x2C__task_x2C__work_x2C__business_x2C__office_x2C__corporation_x2C__job">
</g>
<g id="_x31_3_tranquility_x2C__yoga_x2C__lotus_x2C__posture_x2C__business_x2C__office_x2C__corporation">
</g>
<g id="_x31_2_corporate_x2C__party_x2C__business_x2C__office_x2C__corporation_x2C__job">
</g>
<g id="_x31_1_dialog_x2C__discussion_x2C__work_x2C__business_x2C__office_x2C__corporation_x2C__job">
</g>
<g id="_x31_0_listening_x2C__skill_x2C__dialog_x2C__business_x2C__office_x2C__corporation_x2C__job">
</g>
<g id="_x39__training_x2C__book_x2C__lesson_x2C__business_x2C__office_x2C__corporation_x2C__job">
</g>
<g id="_x38__dress_x2C__code_x2C__shirt_x2C__business_x2C__office_x2C__corporation_x2C__job">
</g>
<g id="_x37__task_x2C__program_x2C__ticket_x2C__business_x2C__office_x2C__corporation_x2C__job">
</g>
<g id="_x36__plan_x2C__graph_x2C__stage_x2C__business_x2C__office_x2C__corporation_x2C__job">
</g>
<g id="_x35__boss_x2C__king_x2C__crown_x2C__business_x2C__office_x2C__corporation_x2C__job">
</g>
<g id="_x34__structure_x2C__structuring_x2C__business_x2C__office_x2C__corporation_x2C__job">
</g>
<g id="_x33__soft_x2C__skills_x2C__communication_x2C__business_x2C__office_x2C__corporation_x2C__job">
</g>
<g id="_x32__office_x2C__house_x2C__portfolio_x2C__business_x2C__corporation_x2C__job">
</g>
<g id="_x31__corporate_x2C__rules_x2C__book_x2C__business_x2C__office_x2C__corporation_x2C__job">
</g>
</svg>
