<?xml version="1.0" encoding="utf-8"?>
<!-- Generator: Adobe Illustrator 16.0.0, SVG Export Plug-In . SVG Version: 6.00 Build 0)  -->
<!DOCTYPE svg PUBLIC "-//W3C//DTD SVG 1.1//EN" "http://www.w3.org/Graphics/SVG/1.1/DTD/svg11.dtd">
<svg version="1.1" xmlns="http://www.w3.org/2000/svg" xmlns:xlink="http://www.w3.org/1999/xlink" x="0px" y="0px" width="64px"
	 height="64px" viewBox="0 0 64 64" enable-background="new 0 0 64 64" xml:space="preserve">
<g id="_x35_0_document_x2C__optimization_x2C__documentation_x2C__business_x2C__office_x2C__corporation_x2C__job">
</g>
<g id="_x34_9_human_x2C__resource_x2C__conveyor_x2C__business_x2C__office_x2C__corporation_x2C__job">
</g>
<g id="_x34_8_knowledge_x2C__training_x2C__growth_x2C__book_x2C__business_x2C__office_x2C__corporation">
</g>
<g id="_x34_7_skill_x2C__competence_x2C__experience_x2C__business_x2C__office_x2C__corporation_x2C__job">
</g>
<g id="_x34_6_target_x2C__success_x2C__victory_x2C__business_x2C__office_x2C__corporation_x2C__job">
</g>
<g id="_x34_5_inbox_x2C__letter_x2C__email_x2C__business_x2C__office_x2C__corporation_x2C__job">
</g>
<g id="_x34_4_document_x2C__workflow_x2C__sharing_x2C__business_x2C__office_x2C__corporation_x2C__job">
</g>
<g id="_x34_3_budget_x2C__allocation_x2C__money_x2C__business_x2C__office_x2C__corporation_x2C__job">
</g>
<g id="_x34_2_case_x2C__task_x2C__project_x2C__business_x2C__office_x2C__corporation_x2C__job">
</g>
<g id="_x34_1_structure_x2C__structuring_x2C__tasks_x2C__business_x2C__office_x2C__corporation_x2C__job">
</g>
<g id="_x34_0_choice_x2C__dilemma_x2C__question_x2C__business_x2C__office_x2C__corporation_x2C__job">
</g>
<g id="_x33_9_workplace_x2C__table_x2C__laptop_x2C__business_x2C__office_x2C__corporation_x2C__job">
</g>
<g id="_x33_8_bribe_x2C__bag_x2C__money_x2C__business_x2C__office_x2C__corporation_x2C__job">
</g>
<g id="_x33_7_corruption_x2C__forage_x2C__money_x2C__business_x2C__office_x2C__corporation_x2C__job">
</g>
<g id="_x33_6_career_x2C__ladder_x2C__success_x2C__business_x2C__office_x2C__corporation_x2C__job">
</g>
<g id="_x33_5_review_x2C__feedback_x2C__rating_x2C__business_x2C__office_x2C__corporation_x2C__job">
</g>
<g id="_x33_4_manipulation_x2C__thread_x2C__puppet_x2C__business_x2C__office_x2C__corporation_x2C__job">
</g>
<g id="_x33_3_location_x2C__map_x2C__pin_x2C__business_x2C__office_x2C__corporation_x2C__job">
</g>
<g id="_x33_2_retirement_x2C__old_x2C__man_x2C__door_x2C__business_x2C__office_x2C__corporation">
</g>
<g id="_x33_1_victory_x2C__success_x2C__medal_x2C__reward_x2C__business_x2C__office_x2C__corporation">
	<g>
		<path fill="#D7E9FF" d="M28,40.06C29.2,40.66,30.56,41,32,41c1.43,0,2.8-0.34,4-0.94V43l-4,5l-4-5V40.06z"/>
	</g>
	<g>
		<path fill="#D7E9FF" d="M32,53c1.66,0,3,1.34,3,3s-1.34,3-3,3s-3-1.34-3-3S30.34,53,32,53z"/>
	</g>
	<g>
		<polygon fill="#FFFFFF" points="40,43 32,53 30,50.5 32,48 36,43 		"/>
	</g>
	<g>
		<polygon fill="#FFFFFF" points="28,43 32,48 30,50.5 24,43 		"/>
	</g>
	<g>
		<path fill="#94C1FF" d="M10,35.5V36c0,3.87,3.13,7,7,7h7l6,7.5l2,2.5c-1.66,0-3,1.34-3,3s1.34,3,3,3s3-1.34,3-3s-1.34-3-3-3l8-10
			h7c3.87,0,7-3.13,7-7v-0.5c0-1.38,1.12-2.5,2.5-2.5s2.5,1.12,2.5,2.5V36c0,6.63-5.37,12-12,12h-5.93H41v15H23V48h-0.07H17
			c-6.63,0-12-5.37-12-12v-0.5C5,34.12,6.12,33,7.5,33S10,34.12,10,35.5z"/>
	</g>
	<g>
		<path fill="#94C1FF" d="M41,25v3l-3-2.03c0,0-2.01,1-5.5,1s-6.5-1-6.5-1L23,28v-3c0-4.42,3.58-8,8-8h6v4C39.21,21,41,22.79,41,25z
			"/>
	</g>
	<g>
		<g>
			<path fill="#5C9EFF" d="M37,21v-4h-4v6c2.21,0,4,0.79,4,3v0.34c0.643-0.199,1-0.37,1-0.37L41,28v-3C41,22.79,39.21,21,37,21z"/>
		</g>
	</g>
	<g>
		<path fill="#EAC6BB" d="M41,28.03V32c0,3.53-2.04,6.59-5,8.06C34.8,40.66,33.43,41,32,41c-1.44,0-2.8-0.34-4-0.94
			c-2.96-1.47-5-4.529-5-8.06v-3.97L26,26c0,0,3.01,1,6.5,1s5.5-1,5.5-1L41,28.03z"/>
	</g>
	<g>
		<path fill="#D7E9FF" d="M41,28.03V32c0,3.53-2.04,6.59-5,8.06C34.8,40.66,33.43,41,32,41c-1.44,0-2.8-0.34-4-0.94
			c-2.96-1.47-5-4.529-5-8.06v-3.97L26,26c0,0,3.01,1,6.5,1s5.5-1,5.5-1L41,28.03z"/>
	</g>
	<g>
		<path fill="#94C1FF" d="M38,26c0,0-0.357,0.171-1,0.369V32c0,3.53-2.04,6.59-5,8.06c-0.626,0.313-1.299,0.551-2.002,0.711
			C30.642,40.918,31.311,41,32,41c1.43,0,2.8-0.34,4-0.94c2.96-1.47,5-4.529,5-8.06v-3.97L38,26z"/>
	</g>
	<g>
		<g>
			<g>
				<g>
					<path fill="#116FFF" d="M32,42c-5.514,0-10-4.486-10-10c0-0.553,0.447-1,1-1s1,0.447,1,1c0,4.411,3.589,8,8,8s8-3.589,8-8
						c0-0.553,0.447-1,1-1s1,0.447,1,1C42,37.514,37.514,42,32,42z"/>
				</g>
				<g>
					<path fill="#116FFF" d="M23,33c-0.553,0-1-0.447-1-1v-7c0-0.553,0.447-1,1-1s1,0.447,1,1v7C24,32.553,23.553,33,23,33z"/>
				</g>
				<g>
					<path fill="#116FFF" d="M41,33c-0.553,0-1-0.447-1-1v-7.001c0-0.553,0.447-1,1-1s1,0.447,1,1V32C42,32.553,41.553,33,41,33z"/>
				</g>
			</g>
			<g>
				<path fill="#116FFF" d="M23,64c-0.553,0-1-0.447-1-1V48c0-0.553,0.447-1,1-1s1,0.447,1,1v15C24,63.553,23.553,64,23,64z"/>
			</g>
			<g>
				<path fill="#116FFF" d="M41,64c-0.553,0-1-0.447-1-1V48c0-0.553,0.447-1,1-1s1,0.447,1,1v15C42,63.553,41.553,64,41,64z"/>
			</g>
			<g>
				<path fill="#116FFF" d="M28,44c-0.553,0-1-0.447-1-1v-2.937c0-0.553,0.447-1,1-1s1,0.447,1,1V43C29,43.553,28.553,44,28,44z"/>
			</g>
			<g>
				<path fill="#116FFF" d="M36,44c-0.553,0-1-0.447-1-1v-2.937c0-0.553,0.447-1,1-1s1,0.447,1,1V43C37,43.553,36.553,44,36,44z"/>
			</g>
			<g>
				<g>
					<g>
						<path fill="#116FFF" d="M47,44c-0.553,0-1-0.447-1-1s0.447-1,1-1c3.309,0,6-2.691,6-6c0-0.553,0.447-1,1-1s1,0.447,1,1
							C55,40.411,51.411,44,47,44z"/>
					</g>
					<g>
						<path fill="#116FFF" d="M47,49c-0.553,0-1-0.447-1-1s0.447-1,1-1c6.065,0,11-4.935,11-11c0-0.553,0.447-1,1-1s1,0.447,1,1
							C60,43.168,54.168,49,47,49z"/>
					</g>
					<g>
						<path fill="#116FFF" d="M59,36.5c-0.553,0-1-0.447-1-1c0-0.827-0.673-1.5-1.5-1.5S55,34.673,55,35.5c0,0.553-0.447,1-1,1
							s-1-0.447-1-1c0-1.93,1.57-3.5,3.5-3.5s3.5,1.57,3.5,3.5C60,36.053,59.553,36.5,59,36.5z"/>
					</g>
					<g>
						<path fill="#116FFF" d="M59,37c-0.553,0-1-0.447-1-1v-0.5c0-0.553,0.447-1,1-1s1,0.447,1,1V36C60,36.553,59.553,37,59,37z"/>
					</g>
					<g>
						<path fill="#116FFF" d="M54,37c-0.553,0-1-0.447-1-1v-0.5c0-0.553,0.447-1,1-1s1,0.447,1,1V36C55,36.553,54.553,37,54,37z"/>
					</g>
				</g>
				<g>
					<path fill="#116FFF" d="M47,44.001H36c-0.553,0-1-0.447-1-1s0.447-1,1-1h11c0.553,0,1,0.447,1,1S47.553,44.001,47,44.001z"/>
				</g>
				<g>
					<path fill="#116FFF" d="M47,49h-5.935c-0.553,0-1-0.447-1-1s0.447-1,1-1H47c0.553,0,1,0.447,1,1S47.553,49,47,49z"/>
				</g>
			</g>
			<g>
				<g>
					<g>
						<path fill="#116FFF" d="M17,44c-4.411,0-8-3.589-8-8c0-0.553,0.447-1,1-1s1,0.447,1,1c0,3.309,2.691,6,6,6
							c0.553,0,1,0.447,1,1S17.553,44,17,44z"/>
					</g>
					<g>
						<path fill="#116FFF" d="M17,49C9.832,49,4,43.168,4,36c0-0.553,0.447-1,1-1s1,0.447,1,1c0,6.065,4.935,11,11,11
							c0.553,0,1,0.447,1,1S17.553,49,17,49z"/>
					</g>
					<g>
						<path fill="#116FFF" d="M10,36.5c-0.553,0-1-0.447-1-1C9,34.673,8.327,34,7.5,34S6,34.673,6,35.5c0,0.553-0.447,1-1,1
							s-1-0.447-1-1C4,33.57,5.57,32,7.5,32s3.5,1.57,3.5,3.5C11,36.053,10.553,36.5,10,36.5z"/>
					</g>
					<g>
						<path fill="#116FFF" d="M5,37c-0.553,0-1-0.447-1-1v-0.5c0-0.553,0.447-1,1-1s1,0.447,1,1V36C6,36.553,5.553,37,5,37z"/>
					</g>
					<g>
						<path fill="#116FFF" d="M10,37c-0.553,0-1-0.447-1-1v-0.5c0-0.553,0.447-1,1-1s1,0.447,1,1V36C11,36.553,10.553,37,10,37z"/>
					</g>
				</g>
				<g>
					<path fill="#116FFF" d="M28,44.001H17c-0.553,0-1-0.447-1-1s0.447-1,1-1h11c0.553,0,1,0.447,1,1S28.553,44.001,28,44.001z"/>
				</g>
				<g>
					<path fill="#116FFF" d="M22.935,49H17c-0.553,0-1-0.447-1-1s0.447-1,1-1h5.935c0.553,0,1,0.447,1,1S23.487,49,22.935,49z"/>
				</g>
			</g>
			<g>
				<g>
					<path fill="#116FFF" d="M41,25.999c-0.553,0-1-0.447-1-1C40,23.346,38.654,22,37,22c-0.553,0-1-0.447-1-1s0.447-1,1-1
						c2.757,0,5,2.242,5,4.999C42,25.552,41.553,25.999,41,25.999z"/>
				</g>
				<g>
					<path fill="#116FFF" d="M37,22c-0.553,0-1-0.447-1-1v-4c0-0.553,0.447-1,1-1s1,0.447,1,1v4C38,21.553,37.553,22,37,22z"/>
				</g>
				<g>
					<path fill="#116FFF" d="M23,26c-0.553,0-1-0.447-1-1c0-4.963,4.037-9,9-9c0.553,0,1,0.447,1,1s-0.447,1-1,1
						c-3.859,0-7,3.141-7,7C24,25.553,23.553,26,23,26z"/>
				</g>
				<g>
					<g>
						<path fill="#116FFF" d="M40.999,29.025c-0.192,0-0.387-0.056-0.559-0.171l-3-2.025c-0.458-0.31-0.578-0.931-0.27-1.389
							s0.93-0.577,1.389-0.27l3,2.025c0.458,0.31,0.578,0.931,0.27,1.389C41.636,28.871,41.32,29.025,40.999,29.025z"/>
					</g>
					<g>
						<path fill="#116FFF" d="M32.5,28c-3.612,0-6.687-1.008-6.815-1.051c-0.523-0.175-0.807-0.74-0.634-1.264
							c0.174-0.523,0.739-0.809,1.264-0.635C26.344,25.061,29.223,26,32.5,26c3.178,0,5.04-0.888,5.059-0.897
							c0.493-0.239,1.094-0.038,1.337,0.457c0.243,0.494,0.043,1.09-0.449,1.336C38.355,26.94,36.186,28,32.5,28z"/>
					</g>
					<g>
						<path fill="#116FFF" d="M23.001,29.025c-0.321,0-0.637-0.154-0.83-0.44c-0.309-0.458-0.188-1.079,0.27-1.389l3-2.025
							c0.459-0.308,1.08-0.188,1.389,0.27s0.188,1.079-0.27,1.389l-3,2.025C23.388,28.97,23.193,29.025,23.001,29.025z"/>
					</g>
				</g>
			</g>
			<g>
				<path fill="#116FFF" d="M37,18h-6c-0.553,0-1-0.447-1-1s0.447-1,1-1h6c0.553,0,1,0.447,1,1S37.553,18,37,18z"/>
			</g>
			<g>
				<path fill="#116FFF" d="M32.001,49c-0.294,0-0.584-0.128-0.782-0.375l-4-4.999c-0.345-0.432-0.274-1.061,0.156-1.406
					c0.433-0.345,1.062-0.274,1.406,0.156l4,4.999c0.345,0.432,0.274,1.061-0.156,1.406C32.44,48.929,32.22,49,32.001,49z"/>
			</g>
			<g>
				<path fill="#116FFF" d="M29.999,51.5c-0.219,0-0.439-0.071-0.624-0.219c-0.431-0.346-0.501-0.975-0.156-1.406l6-7.499
					c0.346-0.431,0.975-0.501,1.406-0.156c0.431,0.346,0.501,0.975,0.156,1.406l-6,7.499C30.583,51.371,30.293,51.5,29.999,51.5z"/>
			</g>
			<g>
				<path fill="#116FFF" d="M31.999,53.999c-0.219,0-0.439-0.071-0.624-0.219c-0.431-0.346-0.501-0.975-0.156-1.406l8-9.998
					c0.347-0.431,0.975-0.501,1.406-0.156c0.431,0.346,0.501,0.975,0.156,1.406l-8,9.998C32.583,53.871,32.293,53.999,31.999,53.999
					z"/>
			</g>
			<g>
				<path fill="#116FFF" d="M32.001,53.999c-0.294,0-0.584-0.128-0.782-0.375l-8-9.998c-0.345-0.432-0.274-1.061,0.156-1.406
					c0.433-0.345,1.06-0.274,1.406,0.156l8,9.998c0.345,0.432,0.274,1.061-0.156,1.406C32.44,53.928,32.22,53.999,32.001,53.999z"/>
			</g>
			<g>
				<path fill="#116FFF" d="M32,60c-2.206,0-4-1.794-4-4s1.794-4,4-4s4,1.794,4,4S34.206,60,32,60z M32,54c-1.103,0-2,0.897-2,2
					s0.897,2,2,2s2-0.897,2-2S33.103,54,32,54z"/>
			</g>
		</g>
		<g>
			<g>
				<path fill="#116FFF" d="M13,20c-0.256,0-0.512-0.098-0.707-0.293c-0.391-0.391-0.391-1.023,0-1.414l2-2
					c0.391-0.391,1.023-0.391,1.414,0s0.391,1.023,0,1.414l-2,2C13.512,19.902,13.256,20,13,20z"/>
			</g>
			<g>
				<path fill="#116FFF" d="M15,22c-0.256,0-0.512-0.098-0.707-0.293l-2-2c-0.391-0.391-0.391-1.023,0-1.414s1.023-0.391,1.414,0
					l2,2c0.391,0.391,0.391,1.023,0,1.414C15.512,21.902,15.256,22,15,22z"/>
			</g>
			<g>
				<path fill="#116FFF" d="M13,24c-0.256,0-0.512-0.098-0.707-0.293c-0.391-0.391-0.391-1.023,0-1.414l2-2
					c0.391-0.391,1.023-0.391,1.414,0s0.391,1.023,0,1.414l-2,2C13.512,23.902,13.256,24,13,24z"/>
			</g>
			<g>
				<path fill="#116FFF" d="M15,26c-0.256,0-0.512-0.098-0.707-0.293l-2-2c-0.391-0.391-0.391-1.023,0-1.414s1.023-0.391,1.414,0
					l2,2c0.391,0.391,0.391,1.023,0,1.414C15.512,25.902,15.256,26,15,26z"/>
			</g>
			<g>
				<path fill="#116FFF" d="M48.001,12c-0.256,0-0.512-0.098-0.707-0.293c-0.391-0.391-0.391-1.023,0-1.414l2-2
					c0.391-0.391,1.023-0.391,1.414,0s0.391,1.023,0,1.414l-2,2C48.513,11.902,48.257,12,48.001,12z"/>
			</g>
			<g>
				<path fill="#116FFF" d="M50.001,10c-0.256,0-0.512-0.098-0.707-0.293l-2-2c-0.391-0.391-0.391-1.023,0-1.414
					s1.023-0.391,1.414,0l2,2c0.391,0.391,0.391,1.023,0,1.414C50.513,9.902,50.257,10,50.001,10z"/>
			</g>
			<g>
				<path fill="#116FFF" d="M48.001,16c-0.256,0-0.512-0.098-0.707-0.293c-0.391-0.391-0.391-1.023,0-1.414l2-2
					c0.391-0.391,1.023-0.391,1.414,0s0.391,1.023,0,1.414l-2,2C48.513,15.902,48.257,16,48.001,16z"/>
			</g>
			<g>
				<path fill="#116FFF" d="M50.001,14c-0.256,0-0.512-0.098-0.707-0.293l-2-2c-0.391-0.391-0.391-1.023,0-1.414
					s1.023-0.391,1.414,0l2,2c0.391,0.391,0.391,1.023,0,1.414C50.513,13.902,50.257,14,50.001,14z"/>
			</g>
			<g>
				<path fill="#116FFF" d="M48.001,8c-0.256,0-0.512-0.098-0.707-0.293c-0.391-0.391-0.391-1.023,0-1.414l2-2
					c0.391-0.391,1.023-0.391,1.414,0s0.391,1.023,0,1.414l-2,2C48.513,7.902,48.257,8,48.001,8z"/>
			</g>
			<g>
				<path fill="#116FFF" d="M50.001,6c-0.256,0-0.512-0.098-0.707-0.293l-2-2c-0.391-0.391-0.391-1.023,0-1.414s1.023-0.391,1.414,0
					l2,2c0.391,0.391,0.391,1.023,0,1.414C50.513,5.902,50.257,6,50.001,6z"/>
			</g>
			<g>
				<path fill="#116FFF" d="M4.03,16c-0.553,0-1.005-0.447-1.005-1s0.442-1,0.994-1H4.03c0.552,0,1,0.447,1,1S4.582,16,4.03,16z"/>
			</g>
			<g>
				<path fill="#116FFF" d="M12.03,2c-0.553,0-1.005-0.447-1.005-1s0.442-1,0.994-1h0.011c0.552,0,1,0.447,1,1S12.582,2,12.03,2z"/>
			</g>
			<g>
				<path fill="#116FFF" d="M60.03,5c-0.553,0-1.005-0.447-1.005-1s0.442-1,0.994-1h0.011c0.552,0,1,0.447,1,1S60.582,5,60.03,5z"/>
			</g>
			<g>
				<path fill="#116FFF" d="M48.03,30c-0.553,0-1.005-0.447-1.005-1s0.442-1,0.994-1h0.011c0.552,0,1,0.447,1,1S48.582,30,48.03,30z
					"/>
			</g>
			<g>
				<path fill="#116FFF" d="M32,9c-0.553,0-1-0.447-1-1V4c0-0.553,0.447-1,1-1s1,0.447,1,1v4C33,8.553,32.553,9,32,9z"/>
			</g>
			<g>
				<path fill="#116FFF" d="M33,7h-2c-0.553,0-1-0.447-1-1s0.447-1,1-1h2c0.553,0,1,0.447,1,1S33.553,7,33,7z"/>
			</g>
			<g>
				<path fill="#116FFF" d="M57,25c-0.553,0-1-0.447-1-1v-4c0-0.553,0.447-1,1-1s1,0.447,1,1v4C58,24.553,57.553,25,57,25z"/>
			</g>
			<g>
				<path fill="#116FFF" d="M58,23h-2c-0.553,0-1-0.447-1-1s0.447-1,1-1h2c0.553,0,1,0.447,1,1S58.553,23,58,23z"/>
			</g>
		</g>
	</g>
</g>
<g id="_x33_0_dismissal_x2C__box_x2C__door_x2C__business_x2C__office_x2C__corporation_x2C__job">
</g>
<g id="_x32_9_meeting_x2C__discussion_x2C__question_x2C__business_x2C__office_x2C__corporation_x2C__job">
</g>
<g id="_x32_8_strategy_x2C__vision_x2C__eye_x2C__chess_x2C__business_x2C__office_x2C__corporation">
</g>
<g id="_x32_7_board_x2C__task_x2C__process_x2C__business_x2C__office_x2C__corporation_x2C__job">
</g>
<g id="_x32_6_scheme_x2C__board_x2C__structure_x2C__business_x2C__office_x2C__corporation_x2C__job">
</g>
<g id="_x32_5_conflict_x2C__dialog_x2C__discussion_x2C__business_x2C__office_x2C__corporation_x2C__job">
</g>
<g id="_x32_4_documentation_x2C__document_x2C__repository_x2C__business_x2C__office_x2C__corporation_x2C__job">
</g>
<g id="_x32_3_sprint_x2C__programming_x2C__code_x2C__business_x2C__office_x2C__corporation_x2C__job">
</g>
<g id="_x32_2_cram_x2C__tablet_x2C__work_x2C__business_x2C__office_x2C__corporation_x2C__job">
</g>
<g id="_x32_1_leader_x2C__discoverer_x2C__flag_x2C__business_x2C__office_x2C__corporation_x2C__job">
</g>
<g id="_x32_0_rally_x2C__collective_x2C__arm_x2C__business_x2C__office_x2C__corporation_x2C__job">
</g>
<g id="_x31_9_consolidation_x2C__portfolio_x2C__puzzle_x2C__business_x2C__office_x2C__corporation_x2C__job">
</g>
<g id="_x31_8_idea_x2C__creative_x2C__work_x2C__business_x2C__office_x2C__corporation_x2C__job">
</g>
<g id="_x31_7_problem_x2C__stress_x2C__resistance_x2C__business_x2C__office_x2C__corporation_x2C__job">
</g>
<g id="_x31_6_hard_x2C__skills_x2C__skill_x2C__portfolio_x2C__book_x2C__business_x2C__office">
</g>
<g id="_x31_5_time_x2C__management_x2C__clock_x2C__deadline_x2C__business_x2C__office_x2C__corporation">
</g>
<g id="_x31_4_multitasking_x2C__task_x2C__work_x2C__business_x2C__office_x2C__corporation_x2C__job">
</g>
<g id="_x31_3_tranquility_x2C__yoga_x2C__lotus_x2C__posture_x2C__business_x2C__office_x2C__corporation">
</g>
<g id="_x31_2_corporate_x2C__party_x2C__business_x2C__office_x2C__corporation_x2C__job">
</g>
<g id="_x31_1_dialog_x2C__discussion_x2C__work_x2C__business_x2C__office_x2C__corporation_x2C__job">
</g>
<g id="_x31_0_listening_x2C__skill_x2C__dialog_x2C__business_x2C__office_x2C__corporation_x2C__job">
</g>
<g id="_x39__training_x2C__book_x2C__lesson_x2C__business_x2C__office_x2C__corporation_x2C__job">
</g>
<g id="_x38__dress_x2C__code_x2C__shirt_x2C__business_x2C__office_x2C__corporation_x2C__job">
</g>
<g id="_x37__task_x2C__program_x2C__ticket_x2C__business_x2C__office_x2C__corporation_x2C__job">
</g>
<g id="_x36__plan_x2C__graph_x2C__stage_x2C__business_x2C__office_x2C__corporation_x2C__job">
</g>
<g id="_x35__boss_x2C__king_x2C__crown_x2C__business_x2C__office_x2C__corporation_x2C__job">
</g>
<g id="_x34__structure_x2C__structuring_x2C__business_x2C__office_x2C__corporation_x2C__job">
</g>
<g id="_x33__soft_x2C__skills_x2C__communication_x2C__business_x2C__office_x2C__corporation_x2C__job">
</g>
<g id="_x32__office_x2C__house_x2C__portfolio_x2C__business_x2C__corporation_x2C__job">
</g>
<g id="_x31__corporate_x2C__rules_x2C__book_x2C__business_x2C__office_x2C__corporation_x2C__job">
</g>
</svg>
