<?xml version="1.0" encoding="utf-8"?>
<!-- Generator: Adobe Illustrator 16.0.0, SVG Export Plug-In . SVG Version: 6.00 Build 0)  -->
<!DOCTYPE svg PUBLIC "-//W3C//DTD SVG 1.1//EN" "http://www.w3.org/Graphics/SVG/1.1/DTD/svg11.dtd">
<svg version="1.1" xmlns="http://www.w3.org/2000/svg" xmlns:xlink="http://www.w3.org/1999/xlink" x="0px" y="0px" width="64px"
	 height="64px" viewBox="0 0 64 64" enable-background="new 0 0 64 64" xml:space="preserve">
<g id="_x35_0_document_x2C__optimization_x2C__documentation_x2C__business_x2C__office_x2C__corporation_x2C__job">
</g>
<g id="_x34_9_human_x2C__resource_x2C__conveyor_x2C__business_x2C__office_x2C__corporation_x2C__job">
</g>
<g id="_x34_8_knowledge_x2C__training_x2C__growth_x2C__book_x2C__business_x2C__office_x2C__corporation">
</g>
<g id="_x34_7_skill_x2C__competence_x2C__experience_x2C__business_x2C__office_x2C__corporation_x2C__job">
</g>
<g id="_x34_6_target_x2C__success_x2C__victory_x2C__business_x2C__office_x2C__corporation_x2C__job">
</g>
<g id="_x34_5_inbox_x2C__letter_x2C__email_x2C__business_x2C__office_x2C__corporation_x2C__job">
</g>
<g id="_x34_4_document_x2C__workflow_x2C__sharing_x2C__business_x2C__office_x2C__corporation_x2C__job">
</g>
<g id="_x34_3_budget_x2C__allocation_x2C__money_x2C__business_x2C__office_x2C__corporation_x2C__job">
</g>
<g id="_x34_2_case_x2C__task_x2C__project_x2C__business_x2C__office_x2C__corporation_x2C__job">
</g>
<g id="_x34_1_structure_x2C__structuring_x2C__tasks_x2C__business_x2C__office_x2C__corporation_x2C__job">
</g>
<g id="_x34_0_choice_x2C__dilemma_x2C__question_x2C__business_x2C__office_x2C__corporation_x2C__job">
</g>
<g id="_x33_9_workplace_x2C__table_x2C__laptop_x2C__business_x2C__office_x2C__corporation_x2C__job">
</g>
<g id="_x33_8_bribe_x2C__bag_x2C__money_x2C__business_x2C__office_x2C__corporation_x2C__job">
</g>
<g id="_x33_7_corruption_x2C__forage_x2C__money_x2C__business_x2C__office_x2C__corporation_x2C__job">
</g>
<g id="_x33_6_career_x2C__ladder_x2C__success_x2C__business_x2C__office_x2C__corporation_x2C__job">
</g>
<g id="_x33_5_review_x2C__feedback_x2C__rating_x2C__business_x2C__office_x2C__corporation_x2C__job">
</g>
<g id="_x33_4_manipulation_x2C__thread_x2C__puppet_x2C__business_x2C__office_x2C__corporation_x2C__job">
</g>
<g id="_x33_3_location_x2C__map_x2C__pin_x2C__business_x2C__office_x2C__corporation_x2C__job">
</g>
<g id="_x33_2_retirement_x2C__old_x2C__man_x2C__door_x2C__business_x2C__office_x2C__corporation">
</g>
<g id="_x33_1_victory_x2C__success_x2C__medal_x2C__reward_x2C__business_x2C__office_x2C__corporation">
</g>
<g id="_x33_0_dismissal_x2C__box_x2C__door_x2C__business_x2C__office_x2C__corporation_x2C__job">
</g>
<g id="_x32_9_meeting_x2C__discussion_x2C__question_x2C__business_x2C__office_x2C__corporation_x2C__job">
</g>
<g id="_x32_8_strategy_x2C__vision_x2C__eye_x2C__chess_x2C__business_x2C__office_x2C__corporation">
</g>
<g id="_x32_7_board_x2C__task_x2C__process_x2C__business_x2C__office_x2C__corporation_x2C__job">
</g>
<g id="_x32_6_scheme_x2C__board_x2C__structure_x2C__business_x2C__office_x2C__corporation_x2C__job">
</g>
<g id="_x32_5_conflict_x2C__dialog_x2C__discussion_x2C__business_x2C__office_x2C__corporation_x2C__job">
</g>
<g id="_x32_4_documentation_x2C__document_x2C__repository_x2C__business_x2C__office_x2C__corporation_x2C__job">
</g>
<g id="_x32_3_sprint_x2C__programming_x2C__code_x2C__business_x2C__office_x2C__corporation_x2C__job">
</g>
<g id="_x32_2_cram_x2C__tablet_x2C__work_x2C__business_x2C__office_x2C__corporation_x2C__job">
</g>
<g id="_x32_1_leader_x2C__discoverer_x2C__flag_x2C__business_x2C__office_x2C__corporation_x2C__job">
</g>
<g id="_x32_0_rally_x2C__collective_x2C__arm_x2C__business_x2C__office_x2C__corporation_x2C__job">
</g>
<g id="_x31_9_consolidation_x2C__portfolio_x2C__puzzle_x2C__business_x2C__office_x2C__corporation_x2C__job">
</g>
<g id="_x31_8_idea_x2C__creative_x2C__work_x2C__business_x2C__office_x2C__corporation_x2C__job">
</g>
<g id="_x31_7_problem_x2C__stress_x2C__resistance_x2C__business_x2C__office_x2C__corporation_x2C__job">
</g>
<g id="_x31_6_hard_x2C__skills_x2C__skill_x2C__portfolio_x2C__book_x2C__business_x2C__office">
</g>
<g id="_x31_5_time_x2C__management_x2C__clock_x2C__deadline_x2C__business_x2C__office_x2C__corporation">
</g>
<g id="_x31_4_multitasking_x2C__task_x2C__work_x2C__business_x2C__office_x2C__corporation_x2C__job">
</g>
<g id="_x31_3_tranquility_x2C__yoga_x2C__lotus_x2C__posture_x2C__business_x2C__office_x2C__corporation">
</g>
<g id="_x31_2_corporate_x2C__party_x2C__business_x2C__office_x2C__corporation_x2C__job">
</g>
<g id="_x31_1_dialog_x2C__discussion_x2C__work_x2C__business_x2C__office_x2C__corporation_x2C__job">
</g>
<g id="_x31_0_listening_x2C__skill_x2C__dialog_x2C__business_x2C__office_x2C__corporation_x2C__job">
</g>
<g id="_x39__training_x2C__book_x2C__lesson_x2C__business_x2C__office_x2C__corporation_x2C__job">
</g>
<g id="_x38__dress_x2C__code_x2C__shirt_x2C__business_x2C__office_x2C__corporation_x2C__job">
</g>
<g id="_x37__task_x2C__program_x2C__ticket_x2C__business_x2C__office_x2C__corporation_x2C__job">
</g>
<g id="_x36__plan_x2C__graph_x2C__stage_x2C__business_x2C__office_x2C__corporation_x2C__job">
</g>
<g id="_x35__boss_x2C__king_x2C__crown_x2C__business_x2C__office_x2C__corporation_x2C__job">
</g>
<g id="_x34__structure_x2C__structuring_x2C__business_x2C__office_x2C__corporation_x2C__job">
</g>
<g id="_x33__soft_x2C__skills_x2C__communication_x2C__business_x2C__office_x2C__corporation_x2C__job">
</g>
<g id="_x32__office_x2C__house_x2C__portfolio_x2C__business_x2C__corporation_x2C__job">
	<g>
		<path fill="#D7E9FF" d="M51,1c-6.63,0-12,5.37-12,12v12h12c6.63,0,12-5.37,12-12S57.63,1,51,1z"/>
	</g>
	<g>
		<path fill="#94C1FF" d="M51,1c-0.857,0-1.693,0.094-2.5,0.265C53.929,2.414,58,7.228,58,13c0,6.63-5.37,12-12,12h5
			c6.63,0,12-5.37,12-12S57.63,1,51,1z"/>
	</g>
	<g>
		<path fill="#5C9EFF" d="M57,11v6c0,0.55-0.45,1-1,1H46c-0.55,0-1-0.45-1-1v-6c0-0.55,0.45-1,1-1h3h4h3C56.55,10,57,10.45,57,11z"
			/>
	</g>
	<g>
		<polygon fill="#D7E9FF" points="21,14 14,14 14,7 21,7 28,7 28,14 		"/>
	</g>
	<g>
		<rect x="24" y="7" fill="#94C1FF" width="4" height="7"/>
	</g>
	<g>
		<path fill="#D7E9FF" d="M41,57c0,1.1-0.9,2-2,2s-2-0.9-2-2s0.9-2,2-2S41,55.9,41,57z"/>
	</g>
	<g>
		<polygon fill="#D7E9FF" points="21,63 8,63 8,14 14,14 21,14 28,14 34,14 34,63 		"/>
	</g>
	<g>
		<rect x="30" y="14" fill="#94C1FF" width="4" height="49"/>
	</g>
	<g>
		<path fill="#D7E9FF" d="M5,57c0,1.1-0.9,2-2,2s-2-0.9-2-2s0.9-2,2-2S5,55.9,5,57z"/>
	</g>
	<g>
		<g>
			<g>
				<path fill="#116FFF" d="M51,26H39c-0.553,0-1-0.448-1-1V13c0-7.168,5.832-13,13-13s13,5.832,13,13S58.168,26,51,26z M40,24h11
					c6.065,0,11-4.935,11-11S57.065,2,51,2S40,6.935,40,13V24z"/>
			</g>
			<g>
				<g>
					<path fill="#116FFF" d="M56,19H46c-1.103,0-2-0.897-2-2v-6c0-1.103,0.897-2,2-2h10c1.103,0,2,0.897,2,2v6
						C58,18.103,57.103,19,56,19z M56,17v1V17L56,17L56,17z M46,11v6h9.997L56,11H46z"/>
				</g>
				<g>
					<path fill="#116FFF" d="M49,11c-0.553,0-1-0.448-1-1V7c0-0.552,0.447-1,1-1s1,0.448,1,1v3C50,10.552,49.553,11,49,11z"/>
				</g>
				<g>
					<path fill="#116FFF" d="M53,8h-4c-0.553,0-1-0.448-1-1s0.447-1,1-1h4c0.553,0,1,0.448,1,1S53.553,8,53,8z"/>
				</g>
				<g>
					<path fill="#116FFF" d="M53,11c-0.553,0-1-0.448-1-1V7c0-0.552,0.447-1,1-1s1,0.448,1,1v3C54,10.552,53.553,11,53,11z"/>
				</g>
			</g>
		</g>
		<g>
			<path fill="#116FFF" d="M28,8H14c-0.553,0-1-0.448-1-1s0.447-1,1-1h14c0.553,0,1,0.448,1,1S28.553,8,28,8z"/>
		</g>
		<g>
			<path fill="#116FFF" d="M28,15c-0.553,0-1-0.448-1-1V7c0-0.552,0.447-1,1-1s1,0.448,1,1v7C29,14.552,28.553,15,28,15z"/>
		</g>
		<g>
			<path fill="#116FFF" d="M14,15c-0.553,0-1-0.448-1-1V7c0-0.552,0.447-1,1-1s1,0.448,1,1v7C15,14.552,14.553,15,14,15z"/>
		</g>
		<g>
			<path fill="#116FFF" d="M34,15H8c-0.553,0-1-0.448-1-1s0.447-1,1-1h26c0.553,0,1,0.448,1,1S34.553,15,34,15z"/>
		</g>
		<g>
			<path fill="#116FFF" d="M34,64c-0.553,0-1-0.447-1-1V14c0-0.552,0.447-1,1-1s1,0.448,1,1v49C35,63.553,34.553,64,34,64z"/>
		</g>
		<g>
			<path fill="#116FFF" d="M8,64c-0.553,0-1-0.447-1-1V14c0-0.552,0.447-1,1-1s1,0.448,1,1v49C9,63.553,8.553,64,8,64z"/>
		</g>
		<g>
			<path fill="#116FFF" d="M21,8c-0.553,0-1-0.448-1-1V1c0-0.552,0.447-1,1-1s1,0.448,1,1v6C22,7.552,21.553,8,21,8z"/>
		</g>
		<g>
			<path fill="#116FFF" d="M41,64H1c-0.553,0-1-0.447-1-1s0.447-1,1-1h40c0.553,0,1,0.447,1,1S41.553,64,41,64z"/>
		</g>
		<g>
			<path fill="#116FFF" d="M3,64c-0.553,0-1-0.447-1-1v-4c0-0.553,0.447-1,1-1s1,0.447,1,1v4C4,63.553,3.553,64,3,64z"/>
		</g>
		<g>
			<path fill="#116FFF" d="M3,60c-1.654,0-3-1.346-3-3s1.346-3,3-3s3,1.346,3,3S4.654,60,3,60z M3,56c-0.552,0-1,0.448-1,1
				s0.448,1,1,1s1-0.448,1-1S3.552,56,3,56z"/>
		</g>
		<g>
			<path fill="#116FFF" d="M39,64c-0.553,0-1-0.447-1-1v-4c0-0.553,0.447-1,1-1s1,0.447,1,1v4C40,63.553,39.553,64,39,64z"/>
		</g>
		<g>
			<path fill="#116FFF" d="M39,60c-1.654,0-3-1.346-3-3s1.346-3,3-3s3,1.346,3,3S40.654,60,39,60z M39,56c-0.552,0-1,0.448-1,1
				s0.448,1,1,1s1-0.448,1-1S39.552,56,39,56z"/>
		</g>
		<g>
			<path fill="#116FFF" d="M15,59c-0.553,0-1-0.447-1-1V18c0-0.552,0.447-1,1-1s1,0.448,1,1v40C16,58.553,15.553,59,15,59z"/>
		</g>
		<g>
			<path fill="#116FFF" d="M21.001,56c-0.553,0-1-0.447-1-1V18c0-0.552,0.447-1,1-1s1,0.448,1,1v37
				C22.001,55.553,21.554,56,21.001,56z"/>
		</g>
		<g>
			<path fill="#116FFF" d="M27.002,59c-0.553,0-1-0.447-1-1V18c0-0.552,0.447-1,1-1s1,0.448,1,1v40
				C28.002,58.553,27.555,59,27.002,59z"/>
		</g>
		<g>
			<path fill="#116FFF" d="M21,64c-0.553,0-1-0.447-1-1v-3c0-0.553,0.447-1,1-1s1,0.447,1,1v3C22,63.553,21.553,64,21,64z"/>
		</g>
		<g>
			<path fill="#116FFF" d="M21.001,15c-0.553,0-1-0.448-1-1v-3c0-0.552,0.447-1,1-1s1,0.448,1,1v3
				C22.001,14.552,21.554,15,21.001,15z"/>
		</g>
	</g>
</g>
<g id="_x31__corporate_x2C__rules_x2C__book_x2C__business_x2C__office_x2C__corporation_x2C__job">
</g>
</svg>
