<?xml version="1.0" encoding="utf-8"?>
<!-- Generator: Adobe Illustrator 16.0.0, SVG Export Plug-In . SVG Version: 6.00 Build 0)  -->
<!DOCTYPE svg PUBLIC "-//W3C//DTD SVG 1.1//EN" "http://www.w3.org/Graphics/SVG/1.1/DTD/svg11.dtd">
<svg version="1.1" xmlns="http://www.w3.org/2000/svg" xmlns:xlink="http://www.w3.org/1999/xlink" x="0px" y="0px" width="64px"
	 height="64px" viewBox="0 0 64 64" enable-background="new 0 0 64 64" xml:space="preserve">
<g id="_x35_0_document_x2C__optimization_x2C__documentation_x2C__business_x2C__office_x2C__corporation_x2C__job">
</g>
<g id="_x34_9_human_x2C__resource_x2C__conveyor_x2C__business_x2C__office_x2C__corporation_x2C__job">
</g>
<g id="_x34_8_knowledge_x2C__training_x2C__growth_x2C__book_x2C__business_x2C__office_x2C__corporation">
</g>
<g id="_x34_7_skill_x2C__competence_x2C__experience_x2C__business_x2C__office_x2C__corporation_x2C__job">
</g>
<g id="_x34_6_target_x2C__success_x2C__victory_x2C__business_x2C__office_x2C__corporation_x2C__job">
</g>
<g id="_x34_5_inbox_x2C__letter_x2C__email_x2C__business_x2C__office_x2C__corporation_x2C__job">
</g>
<g id="_x34_4_document_x2C__workflow_x2C__sharing_x2C__business_x2C__office_x2C__corporation_x2C__job">
	<g>
		<polygon fill="#FFFFFF" points="25,6 20,6 20,1 		"/>
	</g>
	<g>
		<polygon fill="#D7E9FF" points="25,6 25,35 1,35 1,1 20,1 20,6 		"/>
	</g>
	<g>
		<polygon fill="#FFFFFF" points="63,34 58,34 58,29 		"/>
	</g>
	<g>
		<rect x="44" y="51" fill="#FFFFFF" width="7" height="5"/>
	</g>
	<g>
		<rect x="51" y="51" fill="#FFFFFF" width="7" height="5"/>
	</g>
	<g>
		<rect x="51" y="46" fill="#FFFFFF" width="7" height="5"/>
	</g>
	<g>
		<rect x="44" y="46" fill="#FFFFFF" width="7" height="5"/>
	</g>
	<g>
		<polygon fill="#94C1FF" points="58,42 58,46 51,46 44,46 44,42 		"/>
	</g>
	<g>
		<path fill="#D7E9FF" d="M63,34v29H39V29h19v5H63z M58,56v-5v-5v-4H44v4v5v5h7H58z"/>
	</g>
	<g>
		<g>
			<path fill="#116FFF" d="M25,36H1c-0.553,0-1-0.447-1-1V1c0-0.553,0.447-1,1-1h18.999c0.266,0,0.52,0.105,0.707,0.293l5.001,5
				C25.895,5.48,26,5.734,26,6v29C26,35.553,25.553,36,25,36z M2,34h22V6.414L19.585,2H2V34z"/>
		</g>
		<g>
			<path fill="#116FFF" d="M25,7h-5c-0.553,0-1-0.447-1-1s0.447-1,1-1h5c0.553,0,1,0.447,1,1S25.553,7,25,7z"/>
		</g>
		<g>
			<path fill="#116FFF" d="M20,7c-0.553,0-1-0.447-1-1V1c0-0.553,0.447-1,1-1s1,0.447,1,1v5C21,6.553,20.553,7,20,7z"/>
		</g>
		<g>
			<path fill="#116FFF" d="M63,64H39c-0.553,0-1-0.447-1-1V29c0-0.553,0.447-1,1-1h18.999c0.266,0,0.52,0.105,0.707,0.293l5.001,5
				C63.895,33.48,64,33.734,64,34v29C64,63.553,63.553,64,63,64z M40,62h22V34.414L57.585,30H40V62z"/>
		</g>
		<g>
			<path fill="#116FFF" d="M63,35h-5c-0.553,0-1-0.447-1-1s0.447-1,1-1h5c0.553,0,1,0.447,1,1S63.553,35,63,35z"/>
		</g>
		<g>
			<path fill="#116FFF" d="M58,35c-0.553,0-1-0.447-1-1v-5c0-0.553,0.447-1,1-1s1,0.447,1,1v5C59,34.553,58.553,35,58,35z"/>
		</g>
		<g>
			<path fill="#116FFF" d="M19,16H7c-0.553,0-1-0.447-1-1s0.447-1,1-1h12c0.553,0,1,0.447,1,1S19.553,16,19,16z"/>
		</g>
		<g>
			<path fill="#116FFF" d="M19,21H7c-0.553,0-1-0.447-1-1s0.447-1,1-1h12c0.553,0,1,0.447,1,1S19.553,21,19,21z"/>
		</g>
		<g>
			<path fill="#116FFF" d="M13,26H7c-0.553,0-1-0.447-1-1s0.447-1,1-1h6c0.553,0,1,0.447,1,1S13.553,26,13,26z"/>
		</g>
		<g>
			<g>
				<path fill="#116FFF" d="M58,47H44c-0.553,0-1-0.447-1-1s0.447-1,1-1h14c0.553,0,1,0.447,1,1S58.553,47,58,47z"/>
			</g>
			<g>
				<path fill="#116FFF" d="M58,52H44c-0.553,0-1-0.447-1-1s0.447-1,1-1h14c0.553,0,1,0.447,1,1S58.553,52,58,52z"/>
			</g>
			<g>
				<path fill="#116FFF" d="M58,57H44c-0.553,0-1-0.447-1-1s0.447-1,1-1h14c0.553,0,1,0.447,1,1S58.553,57,58,57z"/>
			</g>
			<g>
				<path fill="#116FFF" d="M58,43H44c-0.553,0-1-0.447-1-1s0.447-1,1-1h14c0.553,0,1,0.447,1,1S58.553,43,58,43z"/>
			</g>
			<g>
				<path fill="#116FFF" d="M44,57c-0.553,0-1-0.447-1-1V42c0-0.553,0.447-1,1-1s1,0.447,1,1v14C45,56.553,44.553,57,44,57z"/>
			</g>
			<g>
				<path fill="#116FFF" d="M51,57c-0.553,0-1-0.447-1-1V46c0-0.553,0.447-1,1-1s1,0.447,1,1v10C52,56.553,51.553,57,51,57z"/>
			</g>
			<g>
				<path fill="#116FFF" d="M58,57c-0.553,0-1-0.447-1-1V42c0-0.553,0.447-1,1-1s1,0.447,1,1v14C59,56.553,58.553,57,58,57z"/>
			</g>
		</g>
		<g>
			<g>
				<path fill="#116FFF" d="M13,52c-0.553,0-1-0.447-1-1V39c0-0.553,0.447-1,1-1s1,0.447,1,1v12C14,51.553,13.553,52,13,52z"/>
			</g>
			<g>
				<path fill="#116FFF" d="M35,52H13c-0.553,0-1-0.447-1-1s0.447-1,1-1h22c0.553,0,1,0.447,1,1S35.553,52,35,52z"/>
			</g>
			<g>
				<path fill="#116FFF" d="M32,55c-0.256,0-0.512-0.098-0.707-0.293c-0.391-0.391-0.391-1.023,0-1.414l3-3
					c0.391-0.391,1.023-0.391,1.414,0s0.391,1.023,0,1.414l-3,3C32.512,54.902,32.256,55,32,55z"/>
			</g>
			<g>
				<path fill="#116FFF" d="M35,52c-0.256,0-0.512-0.098-0.707-0.293l-3-3c-0.391-0.391-0.391-1.023,0-1.414s1.023-0.391,1.414,0
					l3,3c0.391,0.391,0.391,1.023,0,1.414C35.512,51.902,35.256,52,35,52z"/>
			</g>
		</g>
		<g>
			<g>
				<path fill="#116FFF" d="M51,26c-0.553,0-1-0.447-1-1V13c0-0.553,0.447-1,1-1s1,0.447,1,1v12C52,25.553,51.553,26,51,26z"/>
			</g>
			<g>
				<path fill="#116FFF" d="M51,14H29c-0.553,0-1-0.447-1-1s0.447-1,1-1h22c0.553,0,1,0.447,1,1S51.553,14,51,14z"/>
			</g>
			<g>
				<path fill="#116FFF" d="M29,14c-0.256,0-0.512-0.098-0.707-0.293c-0.391-0.391-0.391-1.023,0-1.414l3-3
					c0.391-0.391,1.023-0.391,1.414,0s0.391,1.023,0,1.414l-3,3C29.512,13.902,29.256,14,29,14z"/>
			</g>
			<g>
				<path fill="#116FFF" d="M32,17c-0.256,0-0.512-0.098-0.707-0.293l-3-3c-0.391-0.391-0.391-1.023,0-1.414s1.023-0.391,1.414,0
					l3,3c0.391,0.391,0.391,1.023,0,1.414C32.512,16.902,32.256,17,32,17z"/>
			</g>
		</g>
	</g>
</g>
<g id="_x34_3_budget_x2C__allocation_x2C__money_x2C__business_x2C__office_x2C__corporation_x2C__job">
</g>
<g id="_x34_2_case_x2C__task_x2C__project_x2C__business_x2C__office_x2C__corporation_x2C__job">
</g>
<g id="_x34_1_structure_x2C__structuring_x2C__tasks_x2C__business_x2C__office_x2C__corporation_x2C__job">
</g>
<g id="_x34_0_choice_x2C__dilemma_x2C__question_x2C__business_x2C__office_x2C__corporation_x2C__job">
</g>
<g id="_x33_9_workplace_x2C__table_x2C__laptop_x2C__business_x2C__office_x2C__corporation_x2C__job">
</g>
<g id="_x33_8_bribe_x2C__bag_x2C__money_x2C__business_x2C__office_x2C__corporation_x2C__job">
</g>
<g id="_x33_7_corruption_x2C__forage_x2C__money_x2C__business_x2C__office_x2C__corporation_x2C__job">
</g>
<g id="_x33_6_career_x2C__ladder_x2C__success_x2C__business_x2C__office_x2C__corporation_x2C__job">
</g>
<g id="_x33_5_review_x2C__feedback_x2C__rating_x2C__business_x2C__office_x2C__corporation_x2C__job">
</g>
<g id="_x33_4_manipulation_x2C__thread_x2C__puppet_x2C__business_x2C__office_x2C__corporation_x2C__job">
</g>
<g id="_x33_3_location_x2C__map_x2C__pin_x2C__business_x2C__office_x2C__corporation_x2C__job">
</g>
<g id="_x33_2_retirement_x2C__old_x2C__man_x2C__door_x2C__business_x2C__office_x2C__corporation">
</g>
<g id="_x33_1_victory_x2C__success_x2C__medal_x2C__reward_x2C__business_x2C__office_x2C__corporation">
</g>
<g id="_x33_0_dismissal_x2C__box_x2C__door_x2C__business_x2C__office_x2C__corporation_x2C__job">
</g>
<g id="_x32_9_meeting_x2C__discussion_x2C__question_x2C__business_x2C__office_x2C__corporation_x2C__job">
</g>
<g id="_x32_8_strategy_x2C__vision_x2C__eye_x2C__chess_x2C__business_x2C__office_x2C__corporation">
</g>
<g id="_x32_7_board_x2C__task_x2C__process_x2C__business_x2C__office_x2C__corporation_x2C__job">
</g>
<g id="_x32_6_scheme_x2C__board_x2C__structure_x2C__business_x2C__office_x2C__corporation_x2C__job">
</g>
<g id="_x32_5_conflict_x2C__dialog_x2C__discussion_x2C__business_x2C__office_x2C__corporation_x2C__job">
</g>
<g id="_x32_4_documentation_x2C__document_x2C__repository_x2C__business_x2C__office_x2C__corporation_x2C__job">
</g>
<g id="_x32_3_sprint_x2C__programming_x2C__code_x2C__business_x2C__office_x2C__corporation_x2C__job">
</g>
<g id="_x32_2_cram_x2C__tablet_x2C__work_x2C__business_x2C__office_x2C__corporation_x2C__job">
</g>
<g id="_x32_1_leader_x2C__discoverer_x2C__flag_x2C__business_x2C__office_x2C__corporation_x2C__job">
</g>
<g id="_x32_0_rally_x2C__collective_x2C__arm_x2C__business_x2C__office_x2C__corporation_x2C__job">
</g>
<g id="_x31_9_consolidation_x2C__portfolio_x2C__puzzle_x2C__business_x2C__office_x2C__corporation_x2C__job">
</g>
<g id="_x31_8_idea_x2C__creative_x2C__work_x2C__business_x2C__office_x2C__corporation_x2C__job">
</g>
<g id="_x31_7_problem_x2C__stress_x2C__resistance_x2C__business_x2C__office_x2C__corporation_x2C__job">
</g>
<g id="_x31_6_hard_x2C__skills_x2C__skill_x2C__portfolio_x2C__book_x2C__business_x2C__office">
</g>
<g id="_x31_5_time_x2C__management_x2C__clock_x2C__deadline_x2C__business_x2C__office_x2C__corporation">
</g>
<g id="_x31_4_multitasking_x2C__task_x2C__work_x2C__business_x2C__office_x2C__corporation_x2C__job">
</g>
<g id="_x31_3_tranquility_x2C__yoga_x2C__lotus_x2C__posture_x2C__business_x2C__office_x2C__corporation">
</g>
<g id="_x31_2_corporate_x2C__party_x2C__business_x2C__office_x2C__corporation_x2C__job">
</g>
<g id="_x31_1_dialog_x2C__discussion_x2C__work_x2C__business_x2C__office_x2C__corporation_x2C__job">
</g>
<g id="_x31_0_listening_x2C__skill_x2C__dialog_x2C__business_x2C__office_x2C__corporation_x2C__job">
</g>
<g id="_x39__training_x2C__book_x2C__lesson_x2C__business_x2C__office_x2C__corporation_x2C__job">
</g>
<g id="_x38__dress_x2C__code_x2C__shirt_x2C__business_x2C__office_x2C__corporation_x2C__job">
</g>
<g id="_x37__task_x2C__program_x2C__ticket_x2C__business_x2C__office_x2C__corporation_x2C__job">
</g>
<g id="_x36__plan_x2C__graph_x2C__stage_x2C__business_x2C__office_x2C__corporation_x2C__job">
</g>
<g id="_x35__boss_x2C__king_x2C__crown_x2C__business_x2C__office_x2C__corporation_x2C__job">
</g>
<g id="_x34__structure_x2C__structuring_x2C__business_x2C__office_x2C__corporation_x2C__job">
</g>
<g id="_x33__soft_x2C__skills_x2C__communication_x2C__business_x2C__office_x2C__corporation_x2C__job">
</g>
<g id="_x32__office_x2C__house_x2C__portfolio_x2C__business_x2C__corporation_x2C__job">
</g>
<g id="_x31__corporate_x2C__rules_x2C__book_x2C__business_x2C__office_x2C__corporation_x2C__job">
</g>
</svg>
