<svg width="184" height="27" viewBox="0 0 184 27" fill="none" xmlns="http://www.w3.org/2000/svg">
<path d="M26.7159 13.4351C26.7159 6.39302 20.7357 0.68457 13.3596 0.68457C5.98028 0.686154 0 6.39302 0 13.4367C0 19.7993 4.88507 25.0738 11.2694 26.0305V17.1209H7.88022V13.4367H11.2727V10.6253C11.2727 7.43049 13.2678 5.666 16.3181 5.666C17.7806 5.666 19.3082 5.91468 19.3082 5.91468V9.05084H17.6236C15.9658 9.05084 15.4482 10.0345 15.4482 11.0434V13.4351H19.1513L18.5603 17.1193H15.4466V26.0289C21.8309 25.0722 26.7159 19.7977 26.7159 13.4351Z" fill="#6E7B8E"/>
<path d="M52.5594 0.00195312C45.1829 0.00195312 39.2031 5.98168 39.2031 13.3583C39.2031 20.7348 45.1829 26.7146 52.5594 26.7146C59.936 26.7146 65.9157 20.7348 65.9157 13.3583C65.9157 5.98168 59.936 0.00195312 52.5594 0.00195312ZM49.2899 18.8942H46.5853V10.1903H49.2899V18.8942ZM47.9209 9.1218C47.0666 9.1218 46.5143 8.5166 46.5143 7.76809C46.5143 7.00427 47.0833 6.41715 47.9557 6.41715C48.828 6.41715 49.3623 7.00427 49.379 7.76809C49.379 8.5166 48.828 9.1218 47.9209 9.1218ZM59.168 18.8942H56.4634V14.0706C56.4634 12.9478 56.071 12.1854 55.093 12.1854C54.3458 12.1854 53.902 12.7016 53.7058 13.1983C53.6335 13.375 53.6154 13.6254 53.6154 13.8744V18.8928H50.9094V12.9659C50.9094 11.8793 50.8746 10.9708 50.8384 10.1889H53.1883L53.3121 11.3979H53.3664C53.7225 10.8303 54.5949 9.99275 56.0543 9.99275C57.8338 9.99275 59.168 11.1851 59.168 13.7478V18.8942Z" fill="#6E7B8E"/>
<path d="M105.119 13.3563C105.119 20.7328 99.139 26.7126 91.7626 26.7126C84.3861 26.7126 78.4062 20.7328 78.4062 13.3563C78.4062 5.97982 84.3861 0 91.7626 0C99.139 0 105.119 5.97982 105.119 13.3563Z" fill="#6E7B8E"/>
<path d="M91.7591 11.1866C90.5643 11.1866 89.5892 12.1617 89.5892 13.3565C89.5892 14.5514 90.5643 15.5264 91.7591 15.5264C92.9539 15.5264 93.9289 14.5514 93.9289 13.3565C93.9289 12.1617 92.9539 11.1866 91.7591 11.1866ZM98.267 13.3565C98.267 12.458 98.2752 11.5675 98.2247 10.6706C98.1742 9.6288 97.9366 8.70419 97.1748 7.94237C96.4113 7.17891 95.4884 6.94288 94.4466 6.89242C93.548 6.84195 92.6576 6.85009 91.7607 6.85009C90.8622 6.85009 89.9718 6.84195 89.0748 6.89242C88.033 6.94288 87.1085 7.18054 86.3466 7.94237C85.5832 8.70582 85.3472 9.6288 85.2967 10.6706C85.2463 11.5692 85.2544 12.4596 85.2544 13.3565C85.2544 14.2535 85.2463 15.1455 85.2967 16.0424C85.3472 17.0843 85.5848 18.0089 86.3466 18.7707C87.1101 19.5341 88.033 19.7702 89.0748 19.8206C89.9734 19.8711 90.8638 19.863 91.7607 19.863C92.6592 19.863 93.5497 19.8711 94.4466 19.8206C95.4884 19.7702 96.413 19.5325 97.1748 18.7707C97.9382 18.0072 98.1742 17.0843 98.2247 16.0424C98.2768 15.1455 98.267 14.2551 98.267 13.3565ZM91.7591 16.6952C89.9115 16.6952 88.4205 15.2041 88.4205 13.3565C88.4205 11.5089 89.9115 10.0178 91.7591 10.0178C93.6066 10.0178 95.0977 11.5089 95.0977 13.3565C95.0977 15.2041 93.6066 16.6952 91.7591 16.6952ZM95.2344 10.6608C94.8031 10.6608 94.4547 10.3125 94.4547 9.88111C94.4547 9.44974 94.8031 9.10138 95.2344 9.10138C95.6658 9.10138 96.0141 9.44974 96.0141 9.88111C96.0143 9.98354 95.9942 10.085 95.9551 10.1797C95.9159 10.2743 95.8585 10.3603 95.7861 10.4328C95.7136 10.5052 95.6276 10.5626 95.533 10.6018C95.4383 10.6409 95.3369 10.661 95.2344 10.6608Z" fill="#00122E"/>
<path d="M130.966 0.00195312C123.59 0.00195312 117.609 5.98248 117.609 13.3583C117.609 20.734 123.59 26.7146 130.966 26.7146C138.341 26.7146 144.322 20.734 144.322 13.3583C144.322 5.98248 138.341 0.00195312 130.966 0.00195312ZM137.384 10.0699C137.393 10.21 137.393 10.3561 137.393 10.4992C137.393 14.8757 134.06 19.9172 127.969 19.9172C126.091 19.9172 124.35 19.3716 122.883 18.4325C123.152 18.4623 123.408 18.4742 123.682 18.4742C125.233 18.4742 126.658 17.9495 127.794 17.0611C126.339 17.0312 125.116 16.0772 124.699 14.7654C125.209 14.84 125.668 14.84 126.193 14.7058C125.443 14.5536 124.77 14.1468 124.287 13.5544C123.804 12.962 123.541 12.2206 123.542 11.4562V11.4144C123.98 11.6619 124.496 11.8139 125.036 11.8348C124.582 11.5325 124.21 11.1229 123.953 10.6424C123.695 10.1618 123.56 9.62521 123.56 9.08007C123.56 8.46293 123.721 7.89946 124.01 7.41053C124.842 8.43412 125.879 9.27129 127.056 9.86763C128.232 10.464 129.52 10.8061 130.837 10.8718C130.369 8.62094 132.051 6.79936 134.072 6.79936C135.026 6.79936 135.885 7.19885 136.49 7.84282C137.238 7.7027 137.954 7.42245 138.592 7.04681C138.344 7.81301 137.826 8.45995 137.137 8.86839C137.805 8.79684 138.449 8.612 139.045 8.35262C138.595 9.01448 138.031 9.6018 137.384 10.0699Z" fill="#6E7B8E"/>
<circle cx="170.169" cy="13.3563" r="13.3563" fill="#6E7B8E"/>
<path d="M177.481 9.86511C177.394 9.55681 177.226 9.27769 176.994 9.05743C176.755 8.83039 176.462 8.66798 176.143 8.58554C174.948 8.27073 170.163 8.27073 170.163 8.27073C168.169 8.24804 166.174 8.34786 164.192 8.56964C163.872 8.65817 163.58 8.82421 163.341 9.05297C163.105 9.27938 162.935 9.55857 162.846 9.86447C162.632 11.0167 162.528 12.1866 162.536 13.3585C162.528 14.5293 162.632 15.6988 162.846 16.8525C162.933 17.1571 163.103 17.435 163.339 17.6595C163.575 17.884 163.869 18.0462 164.192 18.1321C165.402 18.4462 170.163 18.4462 170.163 18.4462C172.161 18.469 174.158 18.3691 176.143 18.1473C176.462 18.0649 176.755 17.9025 176.994 17.6754C177.226 17.4552 177.394 17.1761 177.48 16.8678C177.7 15.716 177.806 14.5456 177.799 13.3731C177.815 12.1957 177.709 11.0197 177.481 9.86447V9.86511ZM168.642 15.536V11.1816L172.623 13.3591L168.642 15.536Z" fill="#00122E"/>
</svg>
